G04 PROTEUS GERBER X2 FILE*
%TF.GenerationSoftware,Labcenter,Proteus,8.5-SP0-Build22067*%
%TF.CreationDate,2019-11-03T13:44:13+00:00*%
%TF.FileFunction,Legend,Bot*%
%TF.FilePolarity,Positive*%
%TF.Part,Single*%
%FSLAX45Y45*%
%MOMM*%
G01*
%TA.AperFunction,Profile*%
%ADD25C,0.203200*%
%TA.AperFunction,Material*%
%ADD28C,0.203200*%
D25*
X-1904000Y-2587000D02*
X+2085000Y-2587000D01*
X+2085000Y+2620000D01*
X-1904000Y+2620000D01*
X-1904000Y-2587000D01*
D28*
X+1137920Y-513080D02*
X+1404620Y-513080D01*
X+1404620Y+5080D01*
X+1137920Y+5080D01*
X+1137920Y-513080D01*
X+1402080Y-431800D02*
X+1140460Y-431800D01*
X+1270000Y-584200D02*
X+1270000Y-513080D01*
X+1270000Y+5080D02*
X+1270000Y+76200D01*
X+1516380Y-152400D02*
X+1440180Y-152400D01*
X+1440180Y-203200D01*
X+1465580Y-228600D01*
X+1490980Y-228600D01*
X+1516380Y-203200D01*
X+1516380Y-152400D01*
X+1452880Y-330200D02*
X+1440180Y-317500D01*
X+1440180Y-279400D01*
X+1452880Y-266700D01*
X+1503680Y-266700D01*
X+1516380Y-279400D01*
X+1516380Y-317500D01*
X+1503680Y-330200D01*
X+1490980Y-330200D01*
X+1478280Y-317500D01*
X+1478280Y-266700D01*
X+1320800Y-1714500D02*
X+1320800Y-1841500D01*
X+1320800Y-1714500D02*
X+1193800Y-1778000D01*
X+1320800Y-1841500D02*
X+1193800Y-1778000D01*
X+1193800Y-1714500D02*
X+1193800Y-1841500D01*
X+1524000Y-1778000D02*
X+1320800Y-1778000D01*
X+1193800Y-1778000D02*
X+1016000Y-1778000D01*
X+1371600Y-1678940D02*
X+1371600Y-1602740D01*
X+1320800Y-1602740D01*
X+1295400Y-1628140D01*
X+1295400Y-1653540D01*
X+1320800Y-1678940D01*
X+1371600Y-1678940D01*
X+1257300Y-1602740D02*
X+1193800Y-1602740D01*
X+1193800Y-1615440D01*
X+1257300Y-1678940D01*
X-508000Y-508000D02*
X-635000Y-508000D01*
X-635000Y-1524000D01*
X-127000Y-1524000D01*
X-127000Y-508000D01*
X-254000Y-508000D01*
X-381000Y-635000D02*
X-406876Y-632564D01*
X-430848Y-625515D01*
X-452438Y-614238D01*
X-471170Y-599122D01*
X-486569Y-580554D01*
X-498158Y-558919D01*
X-505460Y-534606D01*
X-508000Y-508000D01*
X-381000Y-635000D02*
X-354394Y-632564D01*
X-330081Y-625515D01*
X-308446Y-614238D01*
X-289878Y-599122D01*
X-274762Y-580554D01*
X-263485Y-558919D01*
X-256436Y-534606D01*
X-254000Y-508000D01*
X-177800Y-472440D02*
X-177800Y-396240D01*
X-254000Y-472440D01*
X-254000Y-396240D01*
X-355600Y-459740D02*
X-342900Y-472440D01*
X-304800Y-472440D01*
X-279400Y-447040D01*
X-279400Y-421640D01*
X-304800Y-396240D01*
X-342900Y-396240D01*
X-355600Y-408940D01*
X-381000Y-472440D02*
X-381000Y-396240D01*
X-444500Y-396240D01*
X-457200Y-408940D01*
X-457200Y-421640D01*
X-444500Y-434340D01*
X-381000Y-434340D01*
X-508000Y-421640D02*
X-533400Y-396240D01*
X-533400Y-472440D01*
X-635000Y-254000D02*
X-762000Y-254000D01*
X-1270000Y-317500D02*
X-762000Y-317500D01*
X-762000Y-190500D01*
X-1270000Y-190500D01*
X-1270000Y-317500D01*
X-1270000Y-254000D02*
X-1397000Y-254000D01*
X-914400Y-154940D02*
X-914400Y-78740D01*
X-977900Y-78740D01*
X-990600Y-91440D01*
X-990600Y-104140D01*
X-977900Y-116840D01*
X-914400Y-116840D01*
X-977900Y-116840D02*
X-990600Y-129540D01*
X-990600Y-154940D01*
X-1041400Y-116840D02*
X-1028700Y-104140D01*
X-1028700Y-91440D01*
X-1041400Y-78740D01*
X-1079500Y-78740D01*
X-1092200Y-91440D01*
X-1092200Y-104140D01*
X-1079500Y-116840D01*
X-1041400Y-116840D01*
X-1028700Y-129540D01*
X-1028700Y-142240D01*
X-1041400Y-154940D01*
X-1079500Y-154940D01*
X-1092200Y-142240D01*
X-1092200Y-129540D01*
X-1079500Y-116840D01*
X+889000Y+1524000D02*
X+762000Y+1524000D01*
X+254000Y+1460500D02*
X+762000Y+1460500D01*
X+762000Y+1587500D01*
X+254000Y+1587500D01*
X+254000Y+1460500D01*
X+254000Y+1524000D02*
X+127000Y+1524000D01*
X+660400Y+1623060D02*
X+660400Y+1699260D01*
X+596900Y+1699260D01*
X+584200Y+1686560D01*
X+584200Y+1673860D01*
X+596900Y+1661160D01*
X+660400Y+1661160D01*
X+596900Y+1661160D02*
X+584200Y+1648460D01*
X+584200Y+1623060D01*
X+533400Y+1673860D02*
X+508000Y+1699260D01*
X+508000Y+1623060D01*
X+457200Y+1635760D02*
X+457200Y+1686560D01*
X+444500Y+1699260D01*
X+393700Y+1699260D01*
X+381000Y+1686560D01*
X+381000Y+1635760D01*
X+393700Y+1623060D01*
X+444500Y+1623060D01*
X+457200Y+1635760D01*
X+457200Y+1623060D02*
X+381000Y+1699260D01*
X-127000Y+1143000D02*
X-254000Y+1143000D01*
X-762000Y+1079500D02*
X-254000Y+1079500D01*
X-254000Y+1206500D01*
X-762000Y+1206500D01*
X-762000Y+1079500D01*
X-762000Y+1143000D02*
X-889000Y+1143000D01*
X-406400Y+1242060D02*
X-406400Y+1318260D01*
X-469900Y+1318260D01*
X-482600Y+1305560D01*
X-482600Y+1292860D01*
X-469900Y+1280160D01*
X-406400Y+1280160D01*
X-469900Y+1280160D02*
X-482600Y+1267460D01*
X-482600Y+1242060D01*
X-520700Y+1318260D02*
X-584200Y+1318260D01*
X-584200Y+1305560D01*
X-520700Y+1242060D01*
X-254000Y+2286000D02*
X-254000Y+2159000D01*
X-317500Y+1651000D02*
X-190500Y+1651000D01*
X-190500Y+2159000D01*
X-317500Y+2159000D01*
X-317500Y+1651000D01*
X-254000Y+1651000D02*
X-254000Y+1524000D01*
X-353060Y+2006600D02*
X-429260Y+2006600D01*
X-429260Y+1943100D01*
X-416560Y+1930400D01*
X-403860Y+1930400D01*
X-391160Y+1943100D01*
X-391160Y+2006600D01*
X-391160Y+1943100D02*
X-378460Y+1930400D01*
X-353060Y+1930400D01*
X-403860Y+1828800D02*
X-391160Y+1841500D01*
X-391160Y+1879600D01*
X-403860Y+1892300D01*
X-416560Y+1892300D01*
X-429260Y+1879600D01*
X-429260Y+1841500D01*
X-416560Y+1828800D01*
X-365760Y+1828800D01*
X-353060Y+1841500D01*
X-353060Y+1879600D01*
X-1397000Y+1905000D02*
X-1397000Y+1778000D01*
X-1460500Y+1270000D02*
X-1333500Y+1270000D01*
X-1333500Y+1778000D01*
X-1460500Y+1778000D01*
X-1460500Y+1270000D01*
X-1397000Y+1270000D02*
X-1397000Y+1143000D01*
X-1496060Y+1625600D02*
X-1572260Y+1625600D01*
X-1572260Y+1562100D01*
X-1559560Y+1549400D01*
X-1546860Y+1549400D01*
X-1534160Y+1562100D01*
X-1534160Y+1625600D01*
X-1534160Y+1562100D02*
X-1521460Y+1549400D01*
X-1496060Y+1549400D01*
X-1559560Y+1447800D02*
X-1572260Y+1460500D01*
X-1572260Y+1498600D01*
X-1559560Y+1511300D01*
X-1508760Y+1511300D01*
X-1496060Y+1498600D01*
X-1496060Y+1460500D01*
X-1508760Y+1447800D01*
X-1521460Y+1447800D01*
X-1534160Y+1460500D01*
X-1534160Y+1511300D01*
M02*
