G04 PROTEUS GERBER X2 FILE*
%TF.GenerationSoftware,Labcenter,Proteus,8.5-SP0-Build22067*%
%TF.CreationDate,2019-11-03T13:44:13+00:00*%
%TF.FileFunction,Plated,1,16,PTH*%
%TF.FilePolarity,Positive*%
%TF.Part,Single*%
%FSLAX45Y45*%
%MOMM*%
G01*
%TA.AperFunction,ViaDrill*%
%ADD62C,0.381000*%
%TA.AperFunction,MechanicalDrill*%
%ADD63C,3.000000*%
%TA.AperFunction,ComponentDrill*%
%ADD64C,1.016000*%
%ADD65C,0.850000*%
%ADD66C,0.711200*%
%ADD67C,2.997200*%
%ADD68C,0.762000*%
%ADD69C,0.750000*%
%ADD74C,0.635000*%
%ADD75C,0.508000*%
D62*
X+0Y-1778000D03*
X-127000Y-1714500D03*
X+1016000Y+698500D03*
X+127000Y+698500D03*
D63*
X+1778000Y-2286000D03*
X-1397000Y-2286000D03*
D64*
X-254000Y-2286000D03*
X+0Y-2286000D03*
X+254000Y-2286000D03*
X+508000Y-2286000D03*
D65*
X-1191000Y-1651000D03*
X-841000Y-1651000D03*
D66*
X+581660Y+1924000D03*
X+581660Y+1724000D03*
X+581660Y+1524000D03*
X+581660Y+1324000D03*
D67*
X+889000Y+2284400D03*
X+889000Y+963600D03*
D68*
X-381000Y-1905000D03*
X+635000Y-1905000D03*
D64*
X+635000Y-1143000D03*
X-381000Y-1143000D03*
X+635000Y-1524000D03*
X-381000Y-1524000D03*
X+1016000Y-2159000D03*
X+1016000Y-1143000D03*
X+1397000Y-2159000D03*
X+1397000Y-1143000D03*
D68*
X-1270000Y-254000D03*
X-1270000Y-1270000D03*
X-1016000Y-127000D03*
X-1016000Y-1143000D03*
X-635000Y+0D03*
X-635000Y-1016000D03*
X+1905000Y-254000D03*
X+1905000Y+254000D03*
X-1016000Y-2286000D03*
X-508000Y-2286000D03*
D69*
X+1778000Y-1170000D03*
X+1778000Y-1370000D03*
X+789000Y-762000D03*
X+989000Y-762000D03*
D68*
X+1524000Y-508000D03*
X+1778000Y-508000D03*
D69*
X+27000Y+2032000D03*
X+227000Y+2032000D03*
D68*
X+254000Y+127000D03*
X+254000Y+381000D03*
X-1143000Y+2159000D03*
X-889000Y+2159000D03*
X-1524000Y-1905000D03*
X-1524000Y-635000D03*
X+508000Y-127000D03*
X+1524000Y-127000D03*
D69*
X-508000Y+1805000D03*
X-508000Y+2005000D03*
D64*
X+1270000Y+254000D03*
X+1270000Y-762000D03*
D68*
X+1651000Y-1778000D03*
X+889000Y-1778000D03*
X-1397000Y+1524000D03*
X-1397000Y+2286000D03*
X+0Y-635000D03*
X+0Y-889000D03*
X+0Y-1143000D03*
X+0Y-1397000D03*
X-762000Y-1397000D03*
X-762000Y-1143000D03*
X-762000Y-889000D03*
X-762000Y-635000D03*
X-508000Y-254000D03*
X-1524000Y-254000D03*
X+1016000Y+1524000D03*
X+0Y+1524000D03*
X+0Y+1143000D03*
X-1016000Y+1143000D03*
X-254000Y+2413000D03*
X-254000Y+1397000D03*
X-1397000Y+2032000D03*
X-1397000Y+1016000D03*
X+1016000Y+381000D03*
X+762000Y+381000D03*
X+762000Y-381000D03*
X+1016000Y-381000D03*
D74*
X-1651000Y+2159000D03*
X-1651000Y+2286000D03*
X-1651000Y+2413000D03*
D75*
X-508000Y+1016000D03*
X-254000Y+1016000D03*
X-1143000Y+254000D03*
X-1397000Y+254000D03*
X-254000Y+254000D03*
X-508000Y+254000D03*
M02*
