G04 PROTEUS GERBER X2 FILE*
%TF.GenerationSoftware,Labcenter,Proteus,8.5-SP0-Build22067*%
%TF.CreationDate,2019-11-03T13:44:13+00:00*%
%TF.FileFunction,Copper,L1,Top*%
%TF.FilePolarity,Positive*%
%TF.Part,Single*%
%FSLAX45Y45*%
%MOMM*%
G01*
%TA.AperFunction,Conductor*%
%ADD10C,0.254000*%
%ADD11C,0.635000*%
%TA.AperFunction,ViaPad*%
%ADD12C,0.762000*%
%TA.AperFunction,ComponentPad*%
%ADD13R,2.032000X2.032000*%
%TA.AperFunction,WasherPad*%
%ADD14R,1.280000X1.280000*%
%TA.AperFunction,ComponentPad*%
%ADD15C,1.280000*%
%TA.AperFunction,WasherPad*%
%ADD16C,1.219200*%
%ADD17C,3.556000*%
%TA.AperFunction,ComponentPad*%
%ADD18C,1.778000*%
%ADD19C,2.286000*%
%TA.AperFunction,WasherPad*%
%ADD70R,1.120000X1.120000*%
%TA.AperFunction,ComponentPad*%
%ADD71C,1.120000*%
%TA.AperFunction,SMDPad,CuDef*%
%ADD20R,2.692400X1.143000*%
%TA.AperFunction,ComponentPad*%
%ADD21R,1.270000X1.270000*%
%ADD22C,1.270000*%
%ADD23C,1.016000*%
%ADD24C,1.524000*%
%TA.AperFunction,Profile*%
%ADD25C,0.203200*%
D10*
X+1016000Y-1143000D02*
X+635000Y-1143000D01*
X-1191000Y-1651000D02*
X-1016000Y-1826000D01*
X-1016000Y-2286000D01*
X-1191000Y-1651000D02*
X-1064000Y-1524000D01*
X-381000Y-1524000D01*
X+635000Y-1524000D02*
X+1016000Y-1524000D01*
X+1397000Y-1143000D01*
X-1016000Y-127000D02*
X-1016000Y+444500D01*
X-952500Y+508000D01*
X+1651000Y+508000D01*
X+1905000Y+254000D01*
X-635000Y-1016000D02*
X-508000Y-889000D01*
X-254000Y-889000D01*
X+0Y-1143000D01*
X-1206500Y-127000D02*
X-952500Y-381000D01*
X-63500Y-381000D01*
X+27856Y-289644D01*
X+27856Y+190500D01*
X+91356Y+254000D01*
X+1270000Y+254000D01*
X-1206500Y-127000D02*
X-1587500Y-127000D01*
X-1651000Y-190500D01*
X-1651000Y-444500D01*
X-1587500Y-508000D01*
X-889000Y-508000D01*
X-762000Y-635000D01*
X-1206500Y-127000D02*
X-1143000Y-63500D01*
X-1143000Y+254000D01*
X+0Y-635000D02*
X-190500Y-444500D01*
X-1333500Y-444500D01*
X-1524000Y-254000D01*
X+0Y-635000D02*
X+127000Y-762000D01*
X+789000Y-762000D01*
X+0Y-889000D02*
X+889000Y-889000D01*
X+889000Y-190500D01*
X+952500Y-127000D01*
X+1524000Y-127000D01*
X+1524000Y-508000D02*
X+1397000Y-381000D01*
X+1016000Y-381000D01*
X+1524000Y-508000D02*
X+1905000Y-889000D01*
X+1905000Y-1841500D01*
X+1841500Y-1905000D01*
X+825500Y-1905000D01*
X+698500Y-1778000D01*
X+0Y-1778000D01*
X-508000Y+1016000D02*
X-1206500Y+1016000D01*
X-1270000Y+1079500D01*
X-1270000Y+1397000D01*
X-1397000Y+1524000D01*
X-127000Y-1714500D02*
X-444500Y-1714500D01*
X-508000Y-1778000D01*
X-508000Y-2286000D01*
X-127000Y-1714500D02*
X-127000Y-1333500D01*
X-63500Y-1270000D01*
X+63500Y-1270000D01*
X+381000Y-952500D01*
X+1079500Y-952500D01*
X+1270000Y-762000D01*
X+889000Y-1778000D02*
X+1016000Y-1651000D01*
X+1297000Y-1651000D01*
X+1778000Y-1170000D01*
X+127000Y+698500D02*
X+1016000Y+698500D01*
X+27000Y+2032000D02*
X-100000Y+1905000D01*
X-698500Y+1905000D01*
X-762000Y+1968500D01*
X-762000Y+2222500D01*
X-825500Y+2286000D01*
X-1397000Y+2286000D01*
X-254000Y+1397000D02*
X+127000Y+1397000D01*
X+317500Y+1206500D01*
X+698500Y+1206500D01*
X+1016000Y+1524000D01*
X-254000Y+1397000D02*
X-381000Y+1524000D01*
X-1016000Y+1524000D01*
X-1397000Y+2032000D02*
X-1524000Y+2159000D01*
X-1651000Y+2159000D01*
X-508000Y+1805000D02*
X+100660Y+1805000D01*
X+581660Y+1324000D01*
X-1016000Y+1824000D02*
X-1524000Y+1824000D01*
X-1587500Y+1760500D01*
X-1587500Y+1206500D01*
X-1397000Y+1016000D01*
X-508000Y+1805000D02*
X-635000Y+1805000D01*
X-654000Y+1824000D01*
X-1016000Y+1824000D01*
D11*
X-1016000Y+1143000D02*
X-825500Y+1143000D01*
X-762000Y+1206500D01*
X-444500Y+1206500D01*
X-254000Y+1016000D01*
X+581660Y+1924000D02*
X+381000Y+1924000D01*
X+381000Y+2032000D01*
X+227000Y+2032000D01*
X+100000Y+2159000D01*
X-354000Y+2159000D01*
X-508000Y+2005000D01*
D10*
X+508000Y-127000D02*
X+698500Y-127000D01*
X+762001Y-190501D01*
X+762000Y-381000D01*
X+762001Y-381000D01*
X+254000Y+127000D02*
X+444500Y+127000D01*
X+508000Y+63500D01*
X+508000Y-127000D01*
X+1397000Y-2159000D02*
X+1016000Y-2159000D01*
D12*
X+0Y-1778000D03*
X-127000Y-1714500D03*
X+1016000Y+698500D03*
X+127000Y+698500D03*
D13*
X-254000Y-2286000D03*
X+0Y-2286000D03*
X+254000Y-2286000D03*
X+508000Y-2286000D03*
D14*
X-1191000Y-1651000D03*
D15*
X-841000Y-1651000D03*
D16*
X+581660Y+1924000D03*
X+581660Y+1724000D03*
X+581660Y+1524000D03*
X+581660Y+1324000D03*
D17*
X+889000Y+2284400D03*
X+889000Y+963600D03*
D18*
X-381000Y-1905000D03*
X+635000Y-1905000D03*
D19*
X+635000Y-1143000D03*
X-381000Y-1143000D03*
X+635000Y-1524000D03*
X-381000Y-1524000D03*
X+1016000Y-2159000D03*
X+1016000Y-1143000D03*
X+1397000Y-2159000D03*
X+1397000Y-1143000D03*
D18*
X-1270000Y-254000D03*
X-1270000Y-1270000D03*
X-1016000Y-127000D03*
X-1016000Y-1143000D03*
X-635000Y+0D03*
X-635000Y-1016000D03*
X+1905000Y-254000D03*
X+1905000Y+254000D03*
X-1016000Y-2286000D03*
X-508000Y-2286000D03*
D70*
X+1778000Y-1170000D03*
D71*
X+1778000Y-1370000D03*
D70*
X+789000Y-762000D03*
D71*
X+989000Y-762000D03*
D18*
X+1524000Y-508000D03*
X+1778000Y-508000D03*
D70*
X+27000Y+2032000D03*
D71*
X+227000Y+2032000D03*
D18*
X+254000Y+127000D03*
X+254000Y+381000D03*
X-1143000Y+2159000D03*
X-889000Y+2159000D03*
X-1524000Y-1905000D03*
X-1524000Y-635000D03*
X+508000Y-127000D03*
X+1524000Y-127000D03*
D70*
X-508000Y+1805000D03*
D71*
X-508000Y+2005000D03*
D19*
X+1270000Y+254000D03*
X+1270000Y-762000D03*
D18*
X+1651000Y-1778000D03*
X+889000Y-1778000D03*
X-1397000Y+1524000D03*
X-1397000Y+2286000D03*
D20*
X-1016000Y+1524000D03*
X-1016000Y+1824000D03*
D21*
X+0Y-635000D03*
D22*
X+0Y-889000D03*
X+0Y-1143000D03*
X+0Y-1397000D03*
X-762000Y-1397000D03*
X-762000Y-1143000D03*
X-762000Y-889000D03*
X-762000Y-635000D03*
D18*
X-508000Y-254000D03*
X-1524000Y-254000D03*
X+1016000Y+1524000D03*
X+0Y+1524000D03*
X+0Y+1143000D03*
X-1016000Y+1143000D03*
X-254000Y+2413000D03*
X-254000Y+1397000D03*
X-1397000Y+2032000D03*
X-1397000Y+1016000D03*
D21*
X+1016000Y+381000D03*
D22*
X+762000Y+381000D03*
X+762000Y-381000D03*
X+1016000Y-381000D03*
D23*
X-1651000Y+2159000D03*
X-1651000Y+2286000D03*
X-1651000Y+2413000D03*
D24*
X-508000Y+1016000D03*
X-254000Y+1016000D03*
X-1143000Y+254000D03*
X-1397000Y+254000D03*
X-254000Y+254000D03*
X-508000Y+254000D03*
D25*
X-1904000Y-2587000D02*
X+2085000Y-2587000D01*
X+2085000Y+2620000D01*
X-1904000Y+2620000D01*
X-1904000Y-2587000D01*
M02*
