G04 PROTEUS GERBER X2 FILE*
%TF.GenerationSoftware,Labcenter,Proteus,8.5-SP0-Build22067*%
%TF.CreationDate,2019-11-03T13:44:13+00:00*%
%TF.FileFunction,Copper,L16,Bot*%
%TF.FilePolarity,Positive*%
%TF.Part,Single*%
%FSLAX45Y45*%
%MOMM*%
G01*
%TA.AperFunction,Conductor*%
%ADD10C,0.254000*%
%ADD11C,0.635000*%
%TA.AperFunction,ViaPad*%
%ADD12C,0.762000*%
%TA.AperFunction,ComponentPad*%
%ADD13R,2.032000X2.032000*%
%TA.AperFunction,WasherPad*%
%ADD14R,1.280000X1.280000*%
%TA.AperFunction,ComponentPad*%
%ADD15C,1.280000*%
%TA.AperFunction,WasherPad*%
%ADD16C,1.219200*%
%ADD17C,3.556000*%
%TA.AperFunction,ComponentPad*%
%ADD18C,1.778000*%
%ADD19C,2.286000*%
%TA.AperFunction,WasherPad*%
%ADD70R,1.120000X1.120000*%
%TA.AperFunction,ComponentPad*%
%ADD71C,1.120000*%
%ADD21R,1.270000X1.270000*%
%ADD22C,1.270000*%
%ADD23C,1.016000*%
%ADD24C,1.524000*%
%TA.AperFunction,Profile*%
%ADD25C,0.203200*%
%TA.AperFunction,NonConductor*%
%ADD26C,0.203200*%
%ADD27C,0.063500*%
G36*
X-622299Y+211541D02*
X-685799Y+148041D01*
X-685799Y+126999D01*
X-687605Y+126999D01*
X-761999Y+52605D01*
X-761999Y+50799D01*
X-1100541Y+50799D01*
X-1193799Y-42459D01*
X-1193799Y-150597D01*
X-1217395Y-127001D01*
X-1322605Y-127001D01*
X-1346201Y-150597D01*
X-1346201Y+143156D01*
X-1282701Y+206656D01*
X-1282701Y+254000D01*
X-1257299Y+254000D01*
X-1257299Y+206656D01*
X-1190344Y+139701D01*
X-1095656Y+139701D01*
X-1028701Y+206656D01*
X-1028701Y+254000D01*
X-622299Y+254000D01*
X-622299Y+211541D01*
G37*
G36*
X-1068605Y-253999D02*
X-963395Y-253999D01*
X-962118Y-252722D01*
X-685799Y-529041D01*
X-685799Y-544285D01*
X-702918Y-550399D01*
X-719916Y-533401D01*
X-804084Y-533401D01*
X-863599Y-592916D01*
X-863599Y-607785D01*
X-1092201Y-689429D01*
X-1092201Y-230403D01*
X-1068605Y-253999D01*
G37*
D10*
X+1016000Y-1143000D02*
X+1016000Y-1841500D01*
X+952500Y-1905000D01*
X+635000Y-1905000D01*
X-1270000Y-1270000D02*
X-1524000Y-1016000D01*
X-1524000Y-635000D01*
X-1397000Y-508000D01*
X-1397000Y+254000D01*
X-1191000Y-1651000D02*
X-1191000Y-1524000D01*
X-1270000Y-1445000D01*
X-1270000Y-1270000D01*
X-381000Y-1524000D02*
X-381000Y-1143000D01*
X+635000Y-1524000D02*
X+635000Y-1714500D01*
X+508000Y-1841500D01*
X+508000Y-2286000D01*
X-254000Y-2286000D02*
X-254000Y-2032000D01*
X-381000Y-1905000D01*
X-1270000Y-254000D02*
X-1270000Y-1079500D01*
X-1206500Y-1143000D01*
X-1016000Y-1143000D01*
X-1016000Y-127000D02*
X-635000Y-508000D01*
X-635000Y-1016000D01*
X+0Y-1778000D02*
X+0Y-1397000D01*
X+1651000Y-1778000D02*
X+1206500Y-1333500D01*
X+1206500Y-1016000D01*
X+1143000Y-952500D01*
X+698500Y-952500D01*
X+635000Y-889000D01*
X+635000Y+190500D01*
X+571500Y+254000D01*
X-254000Y+254000D01*
X-127000Y-1778000D02*
X-127000Y-1714500D01*
X-508000Y-1778000D02*
X-1397000Y-1778000D01*
X-1397000Y-2032000D01*
X-1524000Y-1905000D01*
X-127000Y-1778000D02*
X-508000Y-1778000D01*
X+889000Y-1778000D02*
X+889000Y-1397000D01*
X+825500Y-1333500D01*
X+508000Y-1333500D01*
X+444500Y-1270000D01*
X+444500Y-317500D01*
X+381000Y-254000D01*
X-508000Y-254000D01*
X+1016000Y+698500D02*
X+1016000Y+381000D01*
X+127000Y+698500D02*
X+127000Y+1397000D01*
X+0Y+1524000D01*
X-254000Y+2413000D02*
X+317500Y+2413000D01*
X+381000Y+2349500D01*
X+381000Y+762000D01*
X+762000Y+381000D01*
X-1143000Y+2159000D02*
X-889000Y+2413000D01*
X-254000Y+2413000D01*
X-1143000Y+2159000D02*
X-1143000Y+2349500D01*
X-1206500Y+2413000D01*
X-1651000Y+2413000D01*
X+27000Y+2032000D02*
X-254000Y+1751000D01*
X-254000Y+1397000D01*
X-889000Y+2159000D02*
X-444500Y+2159000D01*
X-381000Y+2095500D01*
X-381000Y+1206500D01*
X-317500Y+1143000D01*
X+0Y+1143000D01*
X-889000Y+2159000D02*
X-1016000Y+2032000D01*
X-1397000Y+2032000D01*
D11*
X-952500Y+1714500D02*
X-1079500Y+1841500D01*
X-1543050Y+1841500D01*
X-1543050Y+2235200D01*
X-1593850Y+2286000D01*
X-1651000Y+2286000D01*
X-254000Y+1016000D02*
X-254000Y+698500D01*
X-127000Y+571500D01*
X+63500Y+571500D01*
X+254000Y+381000D01*
X-508000Y+2005000D02*
X-662000Y+2005000D01*
X-952500Y+1714500D01*
X-1016000Y+1143000D02*
X-1016000Y+1651000D01*
X-952500Y+1714500D01*
X+581660Y+1924000D02*
X+581660Y+1724000D01*
X+581660Y+1723999D01*
X+581660Y+1524000D01*
D10*
X+1397000Y-2159000D02*
X+1651000Y-1905000D01*
X+1714500Y-1905000D01*
X+1778000Y-1841500D01*
X+1778000Y-1370000D01*
X-635000Y+0D02*
X-1079500Y+0D01*
X-1143000Y-63500D01*
X-1143000Y-762000D01*
X-762000Y-1143000D01*
X+1905000Y-254000D02*
X+889001Y-254000D01*
X+762000Y-381000D01*
X+762001Y-381000D01*
X+889000Y-507999D01*
X+889000Y-662000D01*
X+989000Y-762000D01*
X-762000Y-1397000D02*
X-762000Y-1524000D01*
X-841000Y-1524000D01*
X-841000Y-1651000D01*
X-635000Y+0D02*
X-635000Y+127000D01*
X-508000Y+254000D01*
X+1778000Y-1370000D02*
X+1651000Y-1243000D01*
X+1651000Y-635000D01*
X+1778000Y-508000D01*
X+254000Y+127000D02*
X-381000Y+127000D01*
X-508000Y+254000D01*
X-762000Y-1397000D02*
X-762000Y-1143000D01*
X+1905000Y-254000D02*
X+1905000Y-381000D01*
X+1778000Y-508000D01*
D12*
X+0Y-1778000D03*
X-127000Y-1714500D03*
X+1016000Y+698500D03*
X+127000Y+698500D03*
D10*
X-622299Y+211541D02*
X-685799Y+148041D01*
X-685799Y+126999D01*
X-687605Y+126999D01*
X-761999Y+52605D01*
X-761999Y+50799D01*
X-1100541Y+50799D01*
X-1193799Y-42459D01*
X-1193799Y-150597D01*
X-1217395Y-127001D01*
X-1322605Y-127001D01*
X-1346201Y-150597D01*
X-1346201Y+143156D01*
X-1282701Y+206656D01*
X-1282701Y+254000D01*
X-1257299Y+254000D01*
X-1257299Y+206656D01*
X-1190344Y+139701D01*
X-1095656Y+139701D01*
X-1028701Y+206656D01*
X-1028701Y+254000D01*
X-622299Y+254000D01*
X-622299Y+211541D01*
X-1068605Y-253999D02*
X-963395Y-253999D01*
X-962118Y-252722D01*
X-685799Y-529041D01*
X-685799Y-544285D01*
X-702918Y-550399D01*
X-719916Y-533401D01*
X-804084Y-533401D01*
X-863599Y-592916D01*
X-863599Y-607785D01*
X-1092201Y-689429D01*
X-1092201Y-230403D01*
X-1068605Y-253999D01*
X-762000Y-533401D02*
X-762000Y-635000D01*
X-1028701Y+254000D02*
X-1143000Y+254000D01*
X-1257299Y+254000D02*
X-1143000Y+254000D01*
X-1143000Y+139701D02*
X-1143000Y+254000D01*
X-1651000Y-428987D02*
X-1651000Y-428987D01*
X-1651000Y-365487D02*
X-1643944Y-365487D01*
X-1651000Y-301987D02*
X-1650999Y-301987D01*
X-1651000Y-238487D02*
X-1650999Y-238487D01*
X-1651000Y-174987D02*
X-1624591Y-174987D01*
X-1651000Y-111487D02*
X-1615722Y-111487D01*
X-1651000Y-47987D02*
X-1608666Y-47987D01*
X-1651000Y+15513D02*
X-1601611Y+15513D01*
X-1651000Y+79013D02*
X-1594555Y+79013D01*
X-1651000Y+142513D02*
X-1587499Y+142513D01*
X-1651000Y+206013D02*
X-1580444Y+206013D01*
X-1651000Y+269513D02*
X-1573388Y+269513D01*
X-1651000Y+333013D02*
X-1479630Y+333013D01*
X-1314370Y+333013D02*
X-1225630Y+333013D01*
X-1060370Y+333013D02*
X-590630Y+333013D01*
X-425370Y+333013D02*
X-336630Y+333013D01*
X-171370Y+333013D02*
X+127001Y+333013D01*
X-1651000Y+381000D02*
X+127001Y+381000D01*
X-1651000Y-428987D02*
X-1651000Y+381000D01*
X-1587500Y+142512D02*
X-1587500Y+381000D01*
X-1524000Y+304800D02*
X-1524000Y+381000D01*
X-1460500Y+352143D02*
X-1460500Y+381000D01*
X-1397000Y+368299D02*
X-1397000Y+381000D01*
X-1333500Y+352143D02*
X-1333500Y+381000D01*
X-1270000Y+304800D02*
X-1270000Y+381000D01*
X-1206500Y+352143D02*
X-1206500Y+381000D01*
X-1143000Y+368299D02*
X-1143000Y+381000D01*
X-1079500Y+352143D02*
X-1079500Y+381000D01*
X-1016000Y+304800D02*
X-1016000Y+381000D01*
X-952500Y+304800D02*
X-952500Y+381000D01*
X-889000Y+304800D02*
X-889000Y+381000D01*
X-825500Y+304800D02*
X-825500Y+381000D01*
X-762000Y+304800D02*
X-762000Y+381000D01*
X-698500Y+304800D02*
X-698500Y+381000D01*
X-635000Y+304800D02*
X-635000Y+381000D01*
X-571500Y+352143D02*
X-571500Y+381000D01*
X-508000Y+368299D02*
X-508000Y+381000D01*
X-444500Y+352143D02*
X-444500Y+381000D01*
X-381000Y+304800D02*
X-381000Y+381000D01*
X-317500Y+352143D02*
X-317500Y+381000D01*
X-254000Y+368299D02*
X-254000Y+381000D01*
X-190500Y+352143D02*
X-190500Y+381000D01*
X-127000Y+304800D02*
X-127000Y+381000D01*
X-63500Y+304799D02*
X-63500Y+381000D01*
X+0Y+304799D02*
X+0Y+381000D01*
X+63500Y+304799D02*
X+63500Y+381000D01*
X+127000Y+304799D02*
X+127000Y+381000D01*
X+150597Y+304799D02*
X+150597Y+304799D01*
X+127001Y+328395D02*
X+150597Y+304799D01*
X-95604Y+304799D01*
X-95604Y+304800D01*
X-143157Y+304800D01*
X-206656Y+368299D01*
X-301344Y+368299D01*
X-364843Y+304800D01*
X-397157Y+304800D01*
X-460656Y+368299D01*
X-555344Y+368299D01*
X-618843Y+304800D01*
X-1032157Y+304800D01*
X-1095656Y+368299D01*
X-1190344Y+368299D01*
X-1253843Y+304800D01*
X-1286157Y+304800D01*
X-1349656Y+368299D01*
X-1444344Y+368299D01*
X-1507843Y+304800D01*
X-1569468Y+304800D01*
X-1622551Y-172947D01*
X-1650999Y-201395D01*
X-1650999Y-306605D01*
X-1638762Y-318842D01*
X-1651000Y-428987D01*
X-1651000Y+381000D01*
X+127001Y+381000D01*
X+127001Y+328395D01*
X-1651000Y-2540000D02*
X+2032000Y-2540000D01*
X-1651000Y-2476500D02*
X+2032000Y-2476500D01*
X-1651000Y-2413000D02*
X-1536012Y-2413000D01*
X-1257988Y-2413000D02*
X-393699Y-2413000D01*
X+647699Y-2413000D02*
X+1638988Y-2413000D01*
X+1917012Y-2413000D02*
X+2032000Y-2413000D01*
X-1651000Y-2349500D02*
X-1585099Y-2349500D01*
X-1208901Y-2349500D02*
X-1132104Y-2349500D01*
X-899896Y-2349500D02*
X-624104Y-2349500D01*
X+647699Y-2349500D02*
X+1589901Y-2349500D01*
X+1966099Y-2349500D02*
X+2032000Y-2349500D01*
X-1651000Y-2286000D02*
X-1585099Y-2286000D01*
X-1208901Y-2286000D02*
X-1142999Y-2286000D01*
X-889001Y-2286000D02*
X-634999Y-2286000D01*
X+647699Y-2286000D02*
X+927475Y-2286000D01*
X+1104525Y-2286000D02*
X+1308475Y-2286000D01*
X+1485525Y-2286000D02*
X+1589901Y-2286000D01*
X+1966099Y-2286000D02*
X+2032000Y-2286000D01*
X-1651000Y-2222500D02*
X-1585099Y-2222500D01*
X-1208901Y-2222500D02*
X-1132104Y-2222500D01*
X-899896Y-2222500D02*
X-624104Y-2222500D01*
X+647699Y-2222500D02*
X+863975Y-2222500D01*
X+1168025Y-2222500D02*
X+1244975Y-2222500D01*
X+1549025Y-2222500D02*
X+1589901Y-2222500D01*
X+1966099Y-2222500D02*
X+2032000Y-2222500D01*
X-1651000Y-2159000D02*
X-1536012Y-2159000D01*
X-1257988Y-2159000D02*
X-393699Y-2159000D01*
X+647699Y-2159000D02*
X+863601Y-2159000D01*
X+1168399Y-2159000D02*
X+1244601Y-2159000D01*
X+1549399Y-2159000D02*
X+1638988Y-2159000D01*
X+1917012Y-2159000D02*
X+2032000Y-2159000D01*
X-1651000Y-2095500D02*
X-304799Y-2095500D01*
X+558799Y-2095500D02*
X+863975Y-2095500D01*
X+1168025Y-2095500D02*
X+1244975Y-2095500D01*
X+1549024Y-2095500D02*
X+2032000Y-2095500D01*
X-1651000Y-2032000D02*
X-1468840Y-2032000D01*
X-1346201Y-2032000D02*
X-325840Y-2032000D01*
X+558799Y-2032000D02*
X+927475Y-2032000D01*
X+1104525Y-2032000D02*
X+1308475Y-2032000D01*
X+1595840Y-2032000D02*
X+2032000Y-2032000D01*
X-1651000Y-1968500D02*
X-1640104Y-1968500D01*
X-1346201Y-1968500D02*
X-497104Y-1968500D01*
X+751104Y-1968500D02*
X+1515660Y-1968500D01*
X+1659340Y-1968500D02*
X+2032000Y-1968500D01*
X-1651000Y-1905000D02*
X-1650999Y-1905000D01*
X-1346201Y-1905000D02*
X-507999Y-1905000D01*
X+1024340Y-1905000D02*
X+1579160Y-1905000D01*
X+1786340Y-1905000D02*
X+2032000Y-1905000D01*
X-1651000Y-1841500D02*
X-1640104Y-1841500D01*
X-1346201Y-1841500D02*
X-497104Y-1841500D01*
X+1066799Y-1841500D02*
X+1534896Y-1841500D01*
X+1828799Y-1841500D02*
X+2032000Y-1841500D01*
X-1651000Y-1778000D02*
X-1447799Y-1778000D01*
X+1066799Y-1778000D02*
X+1524001Y-1778000D01*
X+1828799Y-1778000D02*
X+2032000Y-1778000D01*
X-1651000Y-1714500D02*
X-1293099Y-1714500D01*
X+1066799Y-1714500D02*
X+1515660Y-1714500D01*
X+1828799Y-1714500D02*
X+2032000Y-1714500D01*
X-1651000Y-1651000D02*
X-1293099Y-1651000D01*
X+1066799Y-1651000D02*
X+1452160Y-1651000D01*
X+1828799Y-1651000D02*
X+2032000Y-1651000D01*
X-1651000Y-1587500D02*
X-1293099Y-1587500D01*
X+1066799Y-1587500D02*
X+1388660Y-1587500D01*
X+1828799Y-1587500D02*
X+2032000Y-1587500D01*
X-1651000Y-1524000D02*
X-1262840Y-1524000D01*
X+1066799Y-1524000D02*
X+1325160Y-1524000D01*
X+1828799Y-1524000D02*
X+2032000Y-1524000D01*
X-1651000Y-1460500D02*
X-1320799Y-1460500D01*
X+1066799Y-1460500D02*
X+1261660Y-1460500D01*
X+1828799Y-1460500D02*
X+2032000Y-1460500D01*
X-1651000Y-1397000D02*
X-1320799Y-1397000D01*
X+1066799Y-1397000D02*
X+1198160Y-1397000D01*
X+1872099Y-1397000D02*
X+2032000Y-1397000D01*
X-1651000Y-1333500D02*
X-1386104Y-1333500D01*
X+1066799Y-1333500D02*
X+1155701Y-1333500D01*
X+1872099Y-1333500D02*
X+2032000Y-1333500D01*
X-1651000Y-1270000D02*
X-1396999Y-1270000D01*
X+1104525Y-1270000D02*
X+1155701Y-1270000D01*
X+1749840Y-1270000D02*
X+2032000Y-1270000D01*
X-1651000Y-1206500D02*
X-1405340Y-1206500D01*
X+1872099Y-1206500D02*
X+2032000Y-1206500D01*
X-1651000Y-1143000D02*
X-1468840Y-1143000D01*
X+1872099Y-1143000D02*
X+2032000Y-1143000D01*
X-1651000Y-1079500D02*
X-1532340Y-1079500D01*
X+1872099Y-1079500D02*
X+2032000Y-1079500D01*
X-1651000Y-1016000D02*
X-1574799Y-1016000D01*
X+1701799Y-1016000D02*
X+2032000Y-1016000D01*
X-1651000Y-952500D02*
X-1574799Y-952500D01*
X+1701799Y-952500D02*
X+2032000Y-952500D01*
X+1701799Y-889000D02*
X+2032000Y-889000D01*
X+1701799Y-825500D02*
X+2032000Y-825500D01*
X+1701799Y-762000D02*
X+2032000Y-762000D01*
X+1701799Y-698500D02*
X+2032000Y-698500D01*
X+1722840Y-635000D02*
X+2032000Y-635000D01*
X+1894104Y-571500D02*
X+2032000Y-571500D01*
X+1904999Y-508000D02*
X+2032000Y-508000D01*
X+1913340Y-444500D02*
X+2032000Y-444500D01*
X+1955799Y-381000D02*
X+2032000Y-381000D01*
X+2021104Y-317500D02*
X+2032000Y-317500D01*
X+685799Y-254000D02*
X+817160Y-254000D01*
X+2031999Y-254000D02*
X+2032000Y-254000D01*
X+685799Y-190500D02*
X+1407896Y-190500D01*
X+1640104Y-190500D02*
X+1788896Y-190500D01*
X+2021104Y-190500D02*
X+2032000Y-190500D01*
X+685799Y-127000D02*
X+1397001Y-127000D01*
X+1650999Y-127000D02*
X+2032000Y-127000D01*
X+685799Y-63500D02*
X+1407896Y-63500D01*
X+1640104Y-63500D02*
X+2032000Y-63500D01*
X+685799Y+0D02*
X+2032000Y+0D01*
X+685799Y+63500D02*
X+2032000Y+63500D01*
X+685799Y+127000D02*
X+1181475Y+127000D01*
X+1358525Y+127000D02*
X+2032000Y+127000D01*
X+685799Y+190500D02*
X+1117975Y+190500D01*
X+1422025Y+190500D02*
X+1788896Y+190500D01*
X+2021104Y+190500D02*
X+2032000Y+190500D01*
X+643340Y+254000D02*
X+1117601Y+254000D01*
X+1422399Y+254000D02*
X+1778001Y+254000D01*
X+2031999Y+254000D02*
X+2032000Y+254000D01*
X+370104Y+317500D02*
X+681817Y+317500D01*
X+842183Y+317500D02*
X+914401Y+317500D01*
X+1117599Y+317500D02*
X+1117975Y+317500D01*
X+1422025Y+317500D02*
X+1788896Y+317500D01*
X+2021104Y+317500D02*
X+2032000Y+317500D01*
X+380999Y+381000D02*
X+660401Y+381000D01*
X+863599Y+381000D02*
X+914401Y+381000D01*
X+1117599Y+381000D02*
X+1181475Y+381000D01*
X+1358525Y+381000D02*
X+2032000Y+381000D01*
X-1651000Y-2540000D02*
X-1651000Y-942942D01*
X-1587500Y-2540000D02*
X-1587500Y-2021104D01*
X-1587500Y-1788896D02*
X-1587500Y-920263D01*
X-1524000Y-2540000D02*
X-1524000Y-2425012D01*
X-1524000Y-2146988D02*
X-1524000Y-2031999D01*
X-1524000Y-1778001D02*
X-1524000Y-1087840D01*
X-1460500Y-2540000D02*
X-1460500Y-2474099D01*
X-1460500Y-2097901D02*
X-1460500Y-2040340D01*
X-1460500Y-1788896D02*
X-1460500Y-1151340D01*
X-1397000Y-2540000D02*
X-1397000Y-2474099D01*
X-1397000Y-2097901D02*
X-1397000Y-2086984D01*
X-1397000Y-1727201D02*
X-1397000Y-1214840D01*
X-1333500Y-2540000D02*
X-1333500Y-2474099D01*
X-1333500Y-2097901D02*
X-1333500Y-1828799D01*
X-1333500Y-1727201D02*
X-1333500Y-1386104D01*
X-1270000Y-2540000D02*
X-1270000Y-2425012D01*
X-1270000Y-2146988D02*
X-1270000Y-1828799D01*
X-1270000Y-1548901D02*
X-1270000Y-1516840D01*
X-1206500Y-2540000D02*
X-1206500Y-1828799D01*
X-1143000Y-2540000D02*
X-1143000Y-1828799D01*
X-1079500Y-2540000D02*
X-1079500Y-2402104D01*
X-1079500Y-2169896D02*
X-1079500Y-1828799D01*
X-1016000Y-2540000D02*
X-1016000Y-2412999D01*
X-1016000Y-2159001D02*
X-1016000Y-1828799D01*
X-952500Y-2540000D02*
X-952500Y-2402104D01*
X-952500Y-2169896D02*
X-952500Y-1828799D01*
X-889000Y-2540000D02*
X-889000Y-1828799D01*
X-825500Y-2540000D02*
X-825500Y-1828799D01*
X-762000Y-2540000D02*
X-762000Y-1828799D01*
X-698500Y-2540000D02*
X-698500Y-1828799D01*
X-635000Y-2540000D02*
X-635000Y-1828799D01*
X-571500Y-2540000D02*
X-571500Y-2402104D01*
X-571500Y-2169896D02*
X-571500Y-1828799D01*
X-508000Y-2540000D02*
X-508000Y-2412999D01*
X-508000Y-2159001D02*
X-508000Y-1828799D01*
X-444500Y-2540000D02*
X-444500Y-2402104D01*
X-444500Y-2169896D02*
X-444500Y-2021104D01*
X-381000Y-2540000D02*
X-381000Y-2425699D01*
X-381000Y-2146301D02*
X-381000Y-2031999D01*
X-317500Y-2540000D02*
X-317500Y-2425699D01*
X-317500Y-2146301D02*
X-317500Y-2040340D01*
X-254000Y-2540000D02*
X-254000Y-2425699D01*
X-190500Y-2540000D02*
X-190500Y-2425699D01*
X-127000Y-2540000D02*
X-127000Y-2425699D01*
X-63500Y-2540000D02*
X-63500Y-2425699D01*
X+0Y-2540000D02*
X+0Y-2425699D01*
X+63500Y-2540000D02*
X+63500Y-2425699D01*
X+127000Y-2540000D02*
X+127000Y-2425699D01*
X+190500Y-2540000D02*
X+190500Y-2425699D01*
X+254000Y-2540000D02*
X+254000Y-2425699D01*
X+317500Y-2540000D02*
X+317500Y-2425699D01*
X+381000Y-2540000D02*
X+381000Y-2425699D01*
X+381000Y+304799D02*
X+381000Y+381000D01*
X+444500Y-2540000D02*
X+444500Y-2425699D01*
X+444500Y+304799D02*
X+444500Y+381000D01*
X+508000Y-2540000D02*
X+508000Y-2425699D01*
X+508000Y+304799D02*
X+508000Y+381000D01*
X+571500Y-2540000D02*
X+571500Y-2425699D01*
X+571500Y-2146301D02*
X+571500Y-2021104D01*
X+571500Y+304799D02*
X+571500Y+381000D01*
X+635000Y-2540000D02*
X+635000Y-2425699D01*
X+635000Y-2146301D02*
X+635000Y-2031999D01*
X+635000Y+262340D02*
X+635000Y+381000D01*
X+698500Y-2540000D02*
X+698500Y-2021104D01*
X+698500Y-300817D02*
X+698500Y+300817D01*
X+762000Y-2540000D02*
X+762000Y-1955799D01*
X+762000Y-279401D02*
X+762000Y+279401D01*
X+825500Y-2540000D02*
X+825500Y-1955799D01*
X+825500Y-245660D02*
X+825500Y+300817D01*
X+889000Y-2540000D02*
X+889000Y-2247525D01*
X+889000Y-2070475D02*
X+889000Y-1955799D01*
X+889000Y-203201D02*
X+889000Y+381000D01*
X+952500Y-2540000D02*
X+952500Y-2311025D01*
X+952500Y-2006975D02*
X+952500Y-1955799D01*
X+952500Y-203201D02*
X+952500Y+279401D01*
X+1016000Y-2540000D02*
X+1016000Y-2311399D01*
X+1016000Y-2006601D02*
X+1016000Y-1913340D01*
X+1016000Y-203201D02*
X+1016000Y+279401D01*
X+1079500Y-2540000D02*
X+1079500Y-2311025D01*
X+1079500Y-2006975D02*
X+1079500Y-1295025D01*
X+1079500Y-203201D02*
X+1079500Y+279401D01*
X+1143000Y-2540000D02*
X+1143000Y-2247525D01*
X+1143000Y-2070475D02*
X+1143000Y-1231525D01*
X+1143000Y-203201D02*
X+1143000Y+165475D01*
X+1143000Y+342525D02*
X+1143000Y+381000D01*
X+1206500Y-2540000D02*
X+1206500Y-1405340D01*
X+1206500Y-203201D02*
X+1206500Y+101975D01*
X+1270000Y-2540000D02*
X+1270000Y-2247525D01*
X+1270000Y-2070475D02*
X+1270000Y-1468840D01*
X+1270000Y-203201D02*
X+1270000Y+101601D01*
X+1333500Y-2540000D02*
X+1333500Y-2311025D01*
X+1333500Y-2006975D02*
X+1333500Y-1532340D01*
X+1333500Y-203201D02*
X+1333500Y+101975D01*
X+1397000Y-2540000D02*
X+1397000Y-2311399D01*
X+1397000Y-2006601D02*
X+1397000Y-1595840D01*
X+1397000Y-203201D02*
X+1397000Y+165475D01*
X+1397000Y+342525D02*
X+1397000Y+381000D01*
X+1460500Y-2540000D02*
X+1460500Y-2311025D01*
X+1460500Y-2006975D02*
X+1460500Y-1659340D01*
X+1460500Y-10896D02*
X+1460500Y+381000D01*
X+1524000Y-2540000D02*
X+1524000Y-2247525D01*
X+1524000Y-1960160D02*
X+1524000Y-1722840D01*
X+1524000Y-1D02*
X+1524000Y+381000D01*
X+1587500Y-2540000D02*
X+1587500Y-2040340D01*
X+1587500Y-1896660D02*
X+1587500Y-1894104D01*
X+1587500Y-10896D02*
X+1587500Y+381000D01*
X+1651000Y-2540000D02*
X+1651000Y-2425012D01*
X+1651000Y-2146988D02*
X+1651000Y-1976840D01*
X+1651000Y-203201D02*
X+1651000Y+381000D01*
X+1714500Y-2540000D02*
X+1714500Y-2474099D01*
X+1714500Y-2097901D02*
X+1714500Y-1955799D01*
X+1714500Y-1075901D02*
X+1714500Y-643340D01*
X+1714500Y-203201D02*
X+1714500Y+381000D01*
X+1778000Y-2540000D02*
X+1778000Y-2474099D01*
X+1778000Y-2097901D02*
X+1778000Y-1913340D01*
X+1778000Y-1275901D02*
X+1778000Y-1264099D01*
X+1778000Y-1075901D02*
X+1778000Y-634999D01*
X+1778000Y-203201D02*
X+1778000Y+381000D01*
X+1841500Y-2540000D02*
X+1841500Y-2474099D01*
X+1841500Y-2097901D02*
X+1841500Y-1439576D01*
X+1841500Y-1300424D02*
X+1841500Y-1264099D01*
X+1841500Y-1075901D02*
X+1841500Y-624104D01*
X+1841500Y-137896D02*
X+1841500Y+137896D01*
X+1841500Y+370104D02*
X+1841500Y+381000D01*
X+1905000Y-2540000D02*
X+1905000Y-2425012D01*
X+1905000Y-2146988D02*
X+1905000Y-452840D01*
X+1905000Y-127001D02*
X+1905000Y+127001D01*
X+1905000Y+380999D02*
X+1905000Y+381000D01*
X+1968500Y-2540000D02*
X+1968500Y-370104D01*
X+1968500Y-137896D02*
X+1968500Y+137896D01*
X+1968500Y+370104D02*
X+1968500Y+381000D01*
X+2032000Y-2540000D02*
X+2032000Y+381000D01*
X+2032000Y-2540000D02*
X-1651000Y-2540000D01*
X-1651000Y-942942D01*
X-1574799Y-915728D01*
X-1574799Y-1037041D01*
X-1395722Y-1216118D01*
X-1396999Y-1217395D01*
X-1396999Y-1322605D01*
X-1322605Y-1396999D01*
X-1320799Y-1396999D01*
X-1320799Y-1466041D01*
X-1241799Y-1545041D01*
X-1241799Y-1548901D01*
X-1293099Y-1548901D01*
X-1293099Y-1727201D01*
X-1418041Y-1727201D01*
X-1447799Y-1756959D01*
X-1447799Y-1801597D01*
X-1471395Y-1778001D01*
X-1576605Y-1778001D01*
X-1650999Y-1852395D01*
X-1650999Y-1957605D01*
X-1576605Y-2031999D01*
X-1471395Y-2031999D01*
X-1470118Y-2030722D01*
X-1408919Y-2091921D01*
X-1346201Y-2065943D01*
X-1346201Y-1828799D01*
X-484403Y-1828799D01*
X-507999Y-1852395D01*
X-507999Y-1957605D01*
X-433605Y-2031999D01*
X-328395Y-2031999D01*
X-327118Y-2030722D01*
X-304799Y-2053041D01*
X-304799Y-2146301D01*
X-393699Y-2146301D01*
X-393699Y-2220697D01*
X-455395Y-2159001D01*
X-560605Y-2159001D01*
X-634999Y-2233395D01*
X-634999Y-2338605D01*
X-560605Y-2412999D01*
X-455395Y-2412999D01*
X-393699Y-2351303D01*
X-393699Y-2425699D01*
X+647699Y-2425699D01*
X+647699Y-2146301D01*
X+558799Y-2146301D01*
X+558799Y-2008403D01*
X+582395Y-2031999D01*
X+687605Y-2031999D01*
X+761999Y-1957605D01*
X+761999Y-1955799D01*
X+973541Y-1955799D01*
X+1066799Y-1862541D01*
X+1066799Y-1295399D01*
X+1079126Y-1295399D01*
X+1155701Y-1218824D01*
X+1155701Y-1354541D01*
X+1525278Y-1724118D01*
X+1524001Y-1725395D01*
X+1524001Y-1830605D01*
X+1588778Y-1895382D01*
X+1468842Y-2015318D01*
X+1460126Y-2006601D01*
X+1333874Y-2006601D01*
X+1244601Y-2095874D01*
X+1244601Y-2222126D01*
X+1333874Y-2311399D01*
X+1460126Y-2311399D01*
X+1549399Y-2222126D01*
X+1549399Y-2095874D01*
X+1540682Y-2087158D01*
X+1672041Y-1955799D01*
X+1735541Y-1955799D01*
X+1828799Y-1862541D01*
X+1828799Y-1452277D01*
X+1872099Y-1408977D01*
X+1872099Y-1331023D01*
X+1816977Y-1275901D01*
X+1755741Y-1275901D01*
X+1743939Y-1264099D01*
X+1872099Y-1264099D01*
X+1872099Y-1075901D01*
X+1701799Y-1075901D01*
X+1701799Y-656041D01*
X+1724118Y-633722D01*
X+1725395Y-634999D01*
X+1830605Y-634999D01*
X+1904999Y-560605D01*
X+1904999Y-455395D01*
X+1903722Y-454118D01*
X+1955799Y-402041D01*
X+1955799Y-380999D01*
X+1957605Y-380999D01*
X+2031999Y-306605D01*
X+2031999Y-201395D01*
X+1957605Y-127001D01*
X+1852395Y-127001D01*
X+1778001Y-201395D01*
X+1778001Y-203201D01*
X+1627403Y-203201D01*
X+1650999Y-179605D01*
X+1650999Y-74395D01*
X+1576605Y-1D01*
X+1471395Y-1D01*
X+1397001Y-74395D01*
X+1397001Y-179605D01*
X+1420597Y-203201D01*
X+867960Y-203201D01*
X+791759Y-279401D01*
X+719916Y-279401D01*
X+685799Y-313518D01*
X+685799Y+211541D01*
X+592541Y+304799D01*
X+357403Y+304799D01*
X+380999Y+328395D01*
X+380999Y+381000D01*
X+660401Y+381000D01*
X+660401Y+338916D01*
X+719916Y+279401D01*
X+804084Y+279401D01*
X+863599Y+338916D01*
X+863599Y+381000D01*
X+914401Y+381000D01*
X+914401Y+279401D01*
X+1117599Y+279401D01*
X+1117599Y+381000D01*
X+1181475Y+381000D01*
X+1117601Y+317126D01*
X+1117601Y+190874D01*
X+1206874Y+101601D01*
X+1333126Y+101601D01*
X+1422399Y+190874D01*
X+1422399Y+317126D01*
X+1358525Y+381000D01*
X+2032000Y+381000D01*
X+2032000Y-2540000D01*
X+1589901Y-2363913D02*
X+1589901Y-2208087D01*
X+1700087Y-2097901D01*
X+1855913Y-2097901D01*
X+1966099Y-2208087D01*
X+1966099Y-2363913D01*
X+1855913Y-2474099D01*
X+1700087Y-2474099D01*
X+1589901Y-2363913D01*
X-1585099Y-2363913D02*
X-1585099Y-2208087D01*
X-1474913Y-2097901D01*
X-1319087Y-2097901D01*
X-1208901Y-2208087D01*
X-1208901Y-2363913D01*
X-1319087Y-2474099D01*
X-1474913Y-2474099D01*
X-1585099Y-2363913D01*
X+952874Y-2006601D02*
X+1079126Y-2006601D01*
X+1168399Y-2095874D01*
X+1168399Y-2222126D01*
X+1079126Y-2311399D01*
X+952874Y-2311399D01*
X+863601Y-2222126D01*
X+863601Y-2095874D01*
X+952874Y-2006601D01*
X+1957605Y+127001D02*
X+1852395Y+127001D01*
X+1778001Y+201395D01*
X+1778001Y+306605D01*
X+1852395Y+380999D01*
X+1957605Y+380999D01*
X+2031999Y+306605D01*
X+2031999Y+201395D01*
X+1957605Y+127001D01*
X-1142999Y-2338605D02*
X-1142999Y-2233395D01*
X-1068605Y-2159001D01*
X-963395Y-2159001D01*
X-889001Y-2233395D01*
X-889001Y-2338605D01*
X-963395Y-2412999D01*
X-1068605Y-2412999D01*
X-1142999Y-2338605D01*
X+1016000Y-2006601D02*
X+1016000Y-2159000D01*
X+1016000Y-2311399D02*
X+1016000Y-2159000D01*
X+863601Y-2159000D02*
X+1016000Y-2159000D01*
X+1168399Y-2159000D02*
X+1016000Y-2159000D01*
X+1397000Y-2006601D02*
X+1397000Y-2159000D01*
X+1397000Y-2311399D02*
X+1397000Y-2159000D01*
X+1244601Y-2159000D02*
X+1397000Y-2159000D01*
X+1549399Y-2159000D02*
X+1397000Y-2159000D01*
X+1905000Y-127001D02*
X+1905000Y-254000D01*
X+2031999Y-254000D02*
X+1905000Y-254000D01*
X+1778000Y-1275901D02*
X+1778000Y-1370000D01*
X+1872099Y-1370000D02*
X+1778000Y-1370000D01*
X+1904999Y-508000D02*
X+1778000Y-508000D01*
X+1778000Y-634999D02*
X+1778000Y-508000D01*
X+762000Y-279401D02*
X+762000Y-381000D01*
X-508000Y+368299D02*
X-508000Y+254000D01*
X+177799Y+965199D02*
X+177799Y+965199D01*
X+177799Y+1028699D02*
X+330201Y+1028699D01*
X+177799Y+1092199D02*
X+330201Y+1092199D01*
X+177799Y+1155699D02*
X+330201Y+1155699D01*
X-321859Y+1219199D02*
X-103405Y+1219199D01*
X+177799Y+1219199D02*
X+330201Y+1219199D01*
X-330201Y+1282699D02*
X-319303Y+1282699D01*
X-188697Y+1282699D02*
X+76201Y+1282699D01*
X+177799Y+1282699D02*
X+330201Y+1282699D01*
X-127001Y+1346199D02*
X+76201Y+1346199D01*
X+177799Y+1346199D02*
X+330201Y+1346199D01*
X-127001Y+1409699D02*
X-65303Y+1409699D01*
X+177799Y+1409699D02*
X+330201Y+1409699D01*
X-150595Y+1473199D02*
X-126999Y+1473199D01*
X+126999Y+1473199D02*
X+330201Y+1473199D01*
X-330201Y+1536699D02*
X-304799Y+1536699D01*
X-203201Y+1536699D02*
X-126999Y+1536699D01*
X+126999Y+1536699D02*
X+330201Y+1536699D01*
X-330201Y+1600199D02*
X-304799Y+1600199D01*
X-203201Y+1600199D02*
X-103405Y+1600199D01*
X+103405Y+1600199D02*
X+330201Y+1600199D01*
X-330201Y+1663699D02*
X-304799Y+1663699D01*
X-203201Y+1663699D02*
X+330201Y+1663699D01*
X-330201Y+1727199D02*
X-304799Y+1727199D01*
X-203201Y+1727199D02*
X+330201Y+1727199D01*
X-330201Y+1790699D02*
X-286141Y+1790699D01*
X-142461Y+1790699D02*
X+330201Y+1790699D01*
X-330201Y+1854199D02*
X-222641Y+1854199D01*
X-78961Y+1854199D02*
X+330201Y+1854199D01*
X-330201Y+1917699D02*
X-159141Y+1917699D01*
X-15461Y+1917699D02*
X+330201Y+1917699D01*
X-330201Y+1981199D02*
X-95641Y+1981199D01*
X+121099Y+1981199D02*
X+144725Y+1981199D01*
X+309275Y+1981199D02*
X+330201Y+1981199D01*
X-330201Y+2044699D02*
X-67099Y+2044699D01*
X+121099Y+2044699D02*
X+132901Y+2044699D01*
X+321099Y+2044699D02*
X+330201Y+2044699D01*
X-1016001Y+2108199D02*
X-1015999Y+2108199D01*
X-330201Y+2108199D02*
X-67099Y+2108199D01*
X+121099Y+2108199D02*
X+170123Y+2108199D01*
X+283877Y+2108199D02*
X+330201Y+2108199D01*
X-1016001Y+2171699D02*
X-1015999Y+2171699D01*
X-385359Y+2171699D02*
X+330201Y+2171699D01*
X-994961Y+2235199D02*
X-992405Y+2235199D01*
X-785595Y+2235199D02*
X+330201Y+2235199D01*
X-931461Y+2298699D02*
X-319303Y+2298699D01*
X-188697Y+2298699D02*
X+330201Y+2298699D01*
X-867961Y+2362199D02*
X-380999Y+2362199D01*
X-127001Y+2362199D02*
X+296461Y+2362199D01*
X-867959Y+2362201D02*
X-380999Y+2362201D01*
X-127001Y+2362201D02*
X+296459Y+2362201D01*
X-1039597Y+2082799D02*
X-1039597Y+2082799D01*
X-976097Y+2251507D02*
X-976097Y+2254063D01*
X-912597Y+2285999D02*
X-912597Y+2317563D01*
X-849097Y+2285999D02*
X-849097Y+2362201D01*
X-785597Y+2235201D02*
X-785597Y+2362201D01*
X-722097Y+2209799D02*
X-722097Y+2362201D01*
X-658597Y+2209799D02*
X-658597Y+2362201D01*
X-595097Y+2209799D02*
X-595097Y+2362201D01*
X-531597Y+2209799D02*
X-531597Y+2362201D01*
X-468097Y+2209799D02*
X-468097Y+2362201D01*
X-404597Y+2190937D02*
X-404597Y+2362201D01*
X-341097Y+2127437D02*
X-341097Y+2320493D01*
X-277597Y+1193799D02*
X-277597Y+1270001D01*
X-277597Y+1799243D02*
X-277597Y+2286001D01*
X-214097Y+1193799D02*
X-214097Y+1270001D01*
X-214097Y+1862743D02*
X-214097Y+2286001D01*
X-150597Y+1193799D02*
X-150597Y+1320799D01*
X-150597Y+1473201D02*
X-150597Y+1782563D01*
X-150597Y+1926243D02*
X-150597Y+2336799D01*
X-87097Y+1235507D02*
X-87097Y+1431493D01*
X-87097Y+1616507D02*
X-87097Y+1846063D01*
X-87097Y+1989743D02*
X-87097Y+2362201D01*
X-23597Y+1269999D02*
X-23597Y+1397001D01*
X-23597Y+1650999D02*
X-23597Y+1909563D01*
X-23597Y+2126099D02*
X-23597Y+2362201D01*
X+39903Y+1269999D02*
X+39903Y+1397001D01*
X+39903Y+1650999D02*
X+39903Y+1937901D01*
X+39903Y+2126099D02*
X+39903Y+2362201D01*
X+103403Y+1600201D02*
X+103403Y+1937901D01*
X+103403Y+2126099D02*
X+103403Y+2362201D01*
X+166903Y+1428937D02*
X+166903Y+1959021D01*
X+166903Y+2104979D02*
X+166903Y+2362201D01*
X+230403Y+1000268D02*
X+230403Y+1937901D01*
X+230403Y+2126099D02*
X+230403Y+2362201D01*
X+293903Y+1016000D02*
X+293903Y+1965827D01*
X+293903Y+2098173D02*
X+293903Y+2362201D01*
X+330201Y+1016000D02*
X+330201Y+2328459D01*
X+330201Y+1016000D01*
X+254000Y+1016000D01*
X+177799Y+965199D01*
X+177799Y+1418041D01*
X+125722Y+1470118D01*
X+126999Y+1471395D01*
X+126999Y+1576605D01*
X+52605Y+1650999D01*
X-52605Y+1650999D01*
X-126999Y+1576605D01*
X-126999Y+1471395D01*
X-52605Y+1397001D01*
X+52605Y+1397001D01*
X+53882Y+1398278D01*
X+76201Y+1375959D01*
X+76201Y+1246403D01*
X+52605Y+1269999D01*
X-52605Y+1269999D01*
X-126999Y+1195605D01*
X-126999Y+1193799D01*
X-296459Y+1193799D01*
X-330201Y+1227541D01*
X-330201Y+1293597D01*
X-306605Y+1270001D01*
X-201395Y+1270001D01*
X-127001Y+1344395D01*
X-127001Y+1449605D01*
X-201395Y+1523999D01*
X-203201Y+1523999D01*
X-203201Y+1729959D01*
X+4741Y+1937901D01*
X+121099Y+1937901D01*
X+121099Y+2126099D01*
X-67099Y+2126099D01*
X-67099Y+2009741D01*
X-304799Y+1772041D01*
X-304799Y+1523999D01*
X-306605Y+1523999D01*
X-330201Y+1500403D01*
X-330201Y+2116541D01*
X-423459Y+2209799D01*
X-762001Y+2209799D01*
X-762001Y+2211605D01*
X-836395Y+2285999D01*
X-941605Y+2285999D01*
X-1015999Y+2211605D01*
X-1015999Y+2106395D01*
X-1014722Y+2105118D01*
X-1037041Y+2082799D01*
X-1039597Y+2082799D01*
X-1016001Y+2106395D01*
X-1016001Y+2211605D01*
X-1017278Y+2212882D01*
X-867959Y+2362201D01*
X-380999Y+2362201D01*
X-380999Y+2360395D01*
X-306605Y+2286001D01*
X-201395Y+2286001D01*
X-127001Y+2360395D01*
X-127001Y+2362201D01*
X+296459Y+2362201D01*
X+330201Y+2328459D01*
X+132901Y+1993023D02*
X+132901Y+2070977D01*
X+188023Y+2126099D01*
X+265977Y+2126099D01*
X+321099Y+2070977D01*
X+321099Y+1993023D01*
X+265977Y+1937901D01*
X+188023Y+1937901D01*
X+132901Y+1993023D01*
X-1651000Y+762000D02*
X-323849Y+762000D01*
X-1682750Y+825500D02*
X-323849Y+825500D01*
X-1714500Y+889000D02*
X-323849Y+889000D01*
X-1746250Y+952500D02*
X-1513104Y+952500D01*
X-1280896Y+952500D02*
X-606143Y+952500D01*
X-409857Y+952500D02*
X-352143Y+952500D01*
X-1778000Y+1016000D02*
X-1523999Y+1016000D01*
X-1270001Y+1016000D02*
X-622299Y+1016000D01*
X-393701Y+1016000D02*
X-368299Y+1016000D01*
X+431799Y+1016000D02*
X+673101Y+1016000D01*
X+1104899Y+1016000D02*
X+1270000Y+1016000D01*
X-1778000Y+1079500D02*
X-1513104Y+1079500D01*
X-1280896Y+1079500D02*
X-1132104Y+1079500D01*
X-899896Y+1079500D02*
X-606143Y+1079500D01*
X-409857Y+1079500D02*
X-352143Y+1079500D01*
X+431799Y+1079500D02*
X+699573Y+1079500D01*
X+1078427Y+1079500D02*
X+1270000Y+1079500D01*
X-1778000Y+1143000D02*
X-1142999Y+1143000D01*
X-889001Y+1143000D02*
X-389340Y+1143000D01*
X+431799Y+1143000D02*
X+763073Y+1143000D01*
X+1014927Y+1143000D02*
X+1270000Y+1143000D01*
X-1778000Y+1206500D02*
X-1132104Y+1206500D01*
X-899896Y+1206500D02*
X-431799Y+1206500D01*
X+431799Y+1206500D02*
X+1270000Y+1206500D01*
X-1778000Y+1270000D02*
X-1085849Y+1270000D01*
X-946151Y+1270000D02*
X-431799Y+1270000D01*
X+431799Y+1270000D02*
X+495569Y+1270000D01*
X+667751Y+1270000D02*
X+1270000Y+1270000D01*
X-1778000Y+1333500D02*
X-1085849Y+1333500D01*
X-946151Y+1333500D02*
X-431799Y+1333500D01*
X+431799Y+1333500D02*
X+482601Y+1333500D01*
X+680719Y+1333500D02*
X+1270000Y+1333500D01*
X-1778000Y+1397000D02*
X-1085849Y+1397000D01*
X-946151Y+1397000D02*
X-431799Y+1397000D01*
X+431799Y+1397000D02*
X+514569Y+1397000D01*
X+648751Y+1397000D02*
X+1270000Y+1397000D01*
X-1778000Y+1460500D02*
X-1513104Y+1460500D01*
X-1280896Y+1460500D02*
X-1085849Y+1460500D01*
X-946151Y+1460500D02*
X-431799Y+1460500D01*
X+431799Y+1460500D02*
X+505069Y+1460500D01*
X+658251Y+1460500D02*
X+899896Y+1460500D01*
X+1132104Y+1460500D02*
X+1270000Y+1460500D01*
X-1778000Y+1524000D02*
X-1523999Y+1524000D01*
X-1270001Y+1524000D02*
X-1085849Y+1524000D01*
X-946151Y+1524000D02*
X-431799Y+1524000D01*
X+431799Y+1524000D02*
X+482601Y+1524000D01*
X+680719Y+1524000D02*
X+889001Y+1524000D01*
X+1142999Y+1524000D02*
X+1270000Y+1524000D01*
X-1778000Y+1587500D02*
X-1513104Y+1587500D01*
X-1280896Y+1587500D02*
X-1085849Y+1587500D01*
X-946151Y+1587500D02*
X-431799Y+1587500D01*
X+431799Y+1587500D02*
X+505069Y+1587500D01*
X+658251Y+1587500D02*
X+899896Y+1587500D01*
X+1132104Y+1587500D02*
X+1270000Y+1587500D01*
X-1778000Y+1651000D02*
X-1085849Y+1651000D01*
X-917218Y+1651000D02*
X-431799Y+1651000D01*
X+431799Y+1651000D02*
X+511811Y+1651000D01*
X+651509Y+1651000D02*
X+1270000Y+1651000D01*
X-1778000Y+1714500D02*
X-1051282Y+1714500D01*
X-853720Y+1714500D02*
X-602099Y+1714500D01*
X+431799Y+1714500D02*
X+482601Y+1714500D01*
X+680719Y+1714500D02*
X+1270000Y+1714500D01*
X-1778000Y+1778000D02*
X-1578330Y+1778000D01*
X-790220Y+1778000D02*
X-602099Y+1778000D01*
X+431799Y+1778000D02*
X+495569Y+1778000D01*
X+667751Y+1778000D02*
X+1270000Y+1778000D01*
X-1778000Y+1841500D02*
X-1612899Y+1841500D01*
X-726720Y+1841500D02*
X-602099Y+1841500D01*
X+431799Y+1841500D02*
X+511811Y+1841500D01*
X+651509Y+1841500D02*
X+1270000Y+1841500D01*
X-1778000Y+1905000D02*
X-1612899Y+1905000D01*
X-663220Y+1905000D02*
X-431799Y+1905000D01*
X+431799Y+1905000D02*
X+482601Y+1905000D01*
X+680719Y+1905000D02*
X+1270000Y+1905000D01*
X-1778000Y+1968500D02*
X-1612899Y+1968500D01*
X+431799Y+1968500D02*
X+486069Y+1968500D01*
X+677251Y+1968500D02*
X+1270000Y+1968500D01*
X-1778000Y+2032000D02*
X-1612899Y+2032000D01*
X+431799Y+2032000D02*
X+1270000Y+2032000D01*
X-1778000Y+2095500D02*
X-1713222Y+2095500D01*
X+431799Y+2095500D02*
X+772573Y+2095500D01*
X+1005427Y+2095500D02*
X+1270000Y+2095500D01*
X-1778000Y+2159000D02*
X-1739899Y+2159000D01*
X+431799Y+2159000D02*
X+709073Y+2159000D01*
X+1068927Y+2159000D02*
X+1270000Y+2159000D01*
X-1778000Y+2222500D02*
X-1713222Y+2222500D01*
X+431799Y+2222500D02*
X+673101Y+2222500D01*
X+1104899Y+2222500D02*
X+1270000Y+2222500D01*
X-1778000Y+2286000D02*
X-1739899Y+2286000D01*
X-1092201Y+2286000D02*
X-1087840Y+2286000D01*
X+431799Y+2286000D02*
X+673101Y+2286000D01*
X+1104899Y+2286000D02*
X+1270000Y+2286000D01*
X-1778000Y+2349500D02*
X-1713222Y+2349500D01*
X-1092201Y+2349500D02*
X-1024340Y+2349500D01*
X+431799Y+2349500D02*
X+673101Y+2349500D01*
X+1104899Y+2349500D02*
X+1270000Y+2349500D01*
X-1778000Y+2413000D02*
X-1739899Y+2413000D01*
X-1134660Y+2413000D02*
X-960840Y+2413000D01*
X+389340Y+2413000D02*
X+712273Y+2413000D01*
X+1065727Y+2413000D02*
X+1270000Y+2413000D01*
X-1778000Y+2476500D02*
X-1713222Y+2476500D01*
X-1588778Y+2476500D02*
X-370104Y+2476500D01*
X-137896Y+2476500D02*
X+775773Y+2476500D01*
X+1002227Y+2476500D02*
X+1206500Y+2476500D01*
X-1778000Y+2540000D02*
X+1143000Y+2540000D01*
X-1778000Y+1016000D02*
X-1778000Y+2540000D01*
X-1714500Y+889000D02*
X-1714500Y+2096778D01*
X-1714500Y+2221222D02*
X-1714500Y+2223778D01*
X-1714500Y+2348222D02*
X-1714500Y+2350778D01*
X-1714500Y+2475222D02*
X-1714500Y+2540000D01*
X-1651000Y+762000D02*
X-1651000Y+2070101D01*
X-1651000Y+2501899D02*
X-1651000Y+2540000D01*
X-1587500Y+762000D02*
X-1587500Y+1787170D01*
X-1587500Y+2475222D02*
X-1587500Y+2540000D01*
X-1524000Y+762000D02*
X-1524000Y+1771651D01*
X-1524000Y+2463799D02*
X-1524000Y+2540000D01*
X-1460500Y+762000D02*
X-1460500Y+899896D01*
X-1460500Y+1132104D02*
X-1460500Y+1407896D01*
X-1460500Y+1640104D02*
X-1460500Y+1771651D01*
X-1460500Y+2463799D02*
X-1460500Y+2540000D01*
X-1397000Y+762000D02*
X-1397000Y+889001D01*
X-1397000Y+1142999D02*
X-1397000Y+1397001D01*
X-1397000Y+1650999D02*
X-1397000Y+1771651D01*
X-1397000Y+2463799D02*
X-1397000Y+2540000D01*
X-1333500Y+762000D02*
X-1333500Y+899896D01*
X-1333500Y+1132104D02*
X-1333500Y+1407896D01*
X-1333500Y+1640104D02*
X-1333500Y+1771651D01*
X-1333500Y+2463799D02*
X-1333500Y+2540000D01*
X-1270000Y+762000D02*
X-1270000Y+1771651D01*
X-1270000Y+2463799D02*
X-1270000Y+2540000D01*
X-1206500Y+762000D02*
X-1206500Y+1771651D01*
X-1206500Y+2463799D02*
X-1206500Y+2540000D01*
X-1143000Y+762000D02*
X-1143000Y+1771651D01*
X-1143000Y+2421340D02*
X-1143000Y+2540000D01*
X-1079500Y+762000D02*
X-1079500Y+1026896D01*
X-1079500Y+1686282D02*
X-1079500Y+1742720D01*
X-1079500Y+2294340D02*
X-1079500Y+2540000D01*
X-1016000Y+762000D02*
X-1016000Y+1016001D01*
X-1016000Y+2357840D02*
X-1016000Y+2540000D01*
X-952500Y+762000D02*
X-952500Y+1026896D01*
X-952500Y+2421340D02*
X-952500Y+2540000D01*
X-889000Y+762000D02*
X-889000Y+1679219D01*
X-889000Y+2463799D02*
X-889000Y+2540000D01*
X-825500Y+762000D02*
X-825500Y+1742720D01*
X-825500Y+2463799D02*
X-825500Y+2540000D01*
X-762000Y+762000D02*
X-762000Y+1806220D01*
X-762000Y+2463799D02*
X-762000Y+2540000D01*
X-698500Y+762000D02*
X-698500Y+1869720D01*
X-698500Y+2463799D02*
X-698500Y+2540000D01*
X-635000Y+762000D02*
X-635000Y+1933220D01*
X-635000Y+2463799D02*
X-635000Y+2540000D01*
X-571500Y+762000D02*
X-571500Y+917857D01*
X-571500Y+1114143D02*
X-571500Y+1710901D01*
X-571500Y+1899099D02*
X-571500Y+1935151D01*
X-571500Y+2463799D02*
X-571500Y+2540000D01*
X-508000Y+762000D02*
X-508000Y+901701D01*
X-508000Y+1130299D02*
X-508000Y+1710901D01*
X-508000Y+1899099D02*
X-508000Y+1910901D01*
X-508000Y+2463799D02*
X-508000Y+2540000D01*
X-444500Y+762000D02*
X-444500Y+917857D01*
X-444500Y+1114143D02*
X-444500Y+1710901D01*
X-444500Y+1899099D02*
X-444500Y+1935424D01*
X-444500Y+2463799D02*
X-444500Y+2540000D01*
X-381000Y+762000D02*
X-381000Y+1134660D01*
X-381000Y+2463799D02*
X-381000Y+2540000D01*
X-317500Y+2529104D02*
X-317500Y+2540000D01*
X-254000Y+2539999D02*
X-254000Y+2540000D01*
X-190500Y+2529104D02*
X-190500Y+2540000D01*
X-127000Y+2463799D02*
X-127000Y+2540000D01*
X-63500Y+2463799D02*
X-63500Y+2540000D01*
X+0Y+2463799D02*
X+0Y+2540000D01*
X+63500Y+2463799D02*
X+63500Y+2540000D01*
X+127000Y+2463799D02*
X+127000Y+2540000D01*
X+190500Y+2463799D02*
X+190500Y+2540000D01*
X+254000Y+2463799D02*
X+254000Y+2540000D01*
X+317500Y+2463799D02*
X+317500Y+2540000D01*
X+381000Y+2421340D02*
X+381000Y+2540000D01*
X+444500Y+1016000D02*
X+444500Y+2540000D01*
X+508000Y+1016000D02*
X+508000Y+1257569D01*
X+508000Y+1390431D02*
X+508000Y+1457569D01*
X+508000Y+1590431D02*
X+508000Y+1657569D01*
X+508000Y+1790431D02*
X+508000Y+1857569D01*
X+508000Y+1990431D02*
X+508000Y+2540000D01*
X+571500Y+1016000D02*
X+571500Y+1224941D01*
X+571500Y+1423059D02*
X+571500Y+1424941D01*
X+571500Y+2023059D02*
X+571500Y+2540000D01*
X+635000Y+1016000D02*
X+635000Y+1237249D01*
X+635000Y+1410751D02*
X+635000Y+1437249D01*
X+635000Y+2010751D02*
X+635000Y+2540000D01*
X+698500Y+1078427D02*
X+698500Y+2169573D01*
X+698500Y+2399227D02*
X+698500Y+2540000D01*
X+762000Y+1141927D02*
X+762000Y+2106073D01*
X+762000Y+2462727D02*
X+762000Y+2540000D01*
X+825500Y+1179499D02*
X+825500Y+2068501D01*
X+825500Y+2500299D02*
X+825500Y+2540000D01*
X+889000Y+1179499D02*
X+889000Y+2068501D01*
X+889000Y+2500299D02*
X+889000Y+2540000D01*
X+952500Y+1179499D02*
X+952500Y+1407896D01*
X+952500Y+1640104D02*
X+952500Y+2068501D01*
X+952500Y+2500299D02*
X+952500Y+2540000D01*
X+1016000Y+1141927D02*
X+1016000Y+1397001D01*
X+1016000Y+1650999D02*
X+1016000Y+2106073D01*
X+1016000Y+2462727D02*
X+1016000Y+2540000D01*
X+1079500Y+1078427D02*
X+1079500Y+1407896D01*
X+1079500Y+1640104D02*
X+1079500Y+2169573D01*
X+1079500Y+2399227D02*
X+1079500Y+2540000D01*
X+1143000Y+1016000D02*
X+1143000Y+2540000D01*
X+1206500Y+1016000D02*
X+1206500Y+2476500D01*
X+1270000Y+1016000D02*
X+1270000Y+2413000D01*
X+1270000Y+1016000D01*
X+1104899Y+1016000D01*
X+1104899Y+1053028D01*
X+978428Y+1179499D01*
X+799572Y+1179499D01*
X+673101Y+1053028D01*
X+673101Y+1016000D01*
X+431799Y+1016000D01*
X+431799Y+2370541D01*
X+338541Y+2463799D01*
X-127001Y+2463799D01*
X-127001Y+2465605D01*
X-201395Y+2539999D01*
X-306605Y+2539999D01*
X-380999Y+2465605D01*
X-380999Y+2463799D01*
X-910041Y+2463799D01*
X-1089118Y+2284722D01*
X-1090395Y+2285999D01*
X-1092201Y+2285999D01*
X-1092201Y+2370541D01*
X-1185459Y+2463799D01*
X-1576077Y+2463799D01*
X-1614177Y+2501899D01*
X-1687823Y+2501899D01*
X-1739899Y+2449823D01*
X-1739899Y+2376177D01*
X-1713222Y+2349500D01*
X-1739899Y+2322823D01*
X-1739899Y+2249177D01*
X-1713222Y+2222500D01*
X-1739899Y+2195823D01*
X-1739899Y+2122177D01*
X-1687823Y+2070101D01*
X-1614177Y+2070101D01*
X-1612899Y+2071379D01*
X-1612899Y+1812569D01*
X-1571981Y+1771651D01*
X-1108431Y+1771651D01*
X-1051281Y+1714501D01*
X-1085849Y+1679933D01*
X-1085849Y+1252755D01*
X-1142999Y+1195605D01*
X-1142999Y+1090395D01*
X-1068605Y+1016001D01*
X-963395Y+1016001D01*
X-889001Y+1090395D01*
X-889001Y+1195605D01*
X-946151Y+1252755D01*
X-946151Y+1622067D01*
X-882652Y+1685568D01*
X-633069Y+1935151D01*
X-571227Y+1935151D01*
X-546977Y+1910901D01*
X-469023Y+1910901D01*
X-431799Y+1948125D01*
X-431799Y+1899099D01*
X-602099Y+1899099D01*
X-602099Y+1710901D01*
X-431799Y+1710901D01*
X-431799Y+1185459D01*
X-338992Y+1092652D01*
X-368299Y+1063344D01*
X-368299Y+968656D01*
X-323849Y+924206D01*
X-323849Y+762000D01*
X-1651000Y+762000D01*
X-1778000Y+1016000D01*
X-1778000Y+2540000D01*
X+1143000Y+2540000D01*
X+1270000Y+2413000D01*
X+680719Y+1965032D02*
X+680719Y+1882968D01*
X+651509Y+1853758D01*
X+651509Y+1794242D01*
X+680719Y+1765032D01*
X+680719Y+1682968D01*
X+651509Y+1653758D01*
X+651509Y+1594242D01*
X+680719Y+1565032D01*
X+680719Y+1482968D01*
X+622692Y+1424941D01*
X+540628Y+1424941D01*
X+482601Y+1482968D01*
X+482601Y+1565032D01*
X+511811Y+1594242D01*
X+511811Y+1653758D01*
X+482601Y+1682968D01*
X+482601Y+1765032D01*
X+511811Y+1794242D01*
X+511811Y+1853758D01*
X+482601Y+1882968D01*
X+482601Y+1965032D01*
X+540628Y+2023059D01*
X+622692Y+2023059D01*
X+680719Y+1965032D01*
X+540628Y+1423059D02*
X+622692Y+1423059D01*
X+680719Y+1365032D01*
X+680719Y+1282968D01*
X+622692Y+1224941D01*
X+540628Y+1224941D01*
X+482601Y+1282968D01*
X+482601Y+1365032D01*
X+540628Y+1423059D01*
X+799572Y+2500299D02*
X+978428Y+2500299D01*
X+1104899Y+2373828D01*
X+1104899Y+2194972D01*
X+978428Y+2068501D01*
X+799572Y+2068501D01*
X+673101Y+2194972D01*
X+673101Y+2373828D01*
X+799572Y+2500299D01*
X-1344395Y+1397001D02*
X-1449605Y+1397001D01*
X-1523999Y+1471395D01*
X-1523999Y+1576605D01*
X-1449605Y+1650999D01*
X-1344395Y+1650999D01*
X-1270001Y+1576605D01*
X-1270001Y+1471395D01*
X-1344395Y+1397001D01*
X+889001Y+1471395D02*
X+889001Y+1576605D01*
X+963395Y+1650999D01*
X+1068605Y+1650999D01*
X+1142999Y+1576605D01*
X+1142999Y+1471395D01*
X+1068605Y+1397001D01*
X+963395Y+1397001D01*
X+889001Y+1471395D01*
X-1344395Y+889001D02*
X-1449605Y+889001D01*
X-1523999Y+963395D01*
X-1523999Y+1068605D01*
X-1449605Y+1142999D01*
X-1344395Y+1142999D01*
X-1270001Y+1068605D01*
X-1270001Y+963395D01*
X-1344395Y+889001D01*
X-622299Y+968656D02*
X-622299Y+1063344D01*
X-555344Y+1130299D01*
X-460656Y+1130299D01*
X-393701Y+1063344D01*
X-393701Y+968656D01*
X-460656Y+901701D01*
X-555344Y+901701D01*
X-622299Y+968656D01*
X-184151Y+762000D02*
X-127000Y+762000D01*
X-184151Y+825500D02*
X-31749Y+825500D01*
X-184151Y+889000D02*
X+63500Y+889000D01*
X-155857Y+952500D02*
X+76201Y+952500D01*
X-139701Y+1016000D02*
X+76201Y+1016000D01*
X-155857Y+1079500D02*
X-116104Y+1079500D01*
X-168558Y+1092201D02*
X-126999Y+1092201D01*
X-184151Y+762000D02*
X-184151Y+924206D01*
X-120651Y+766232D02*
X-120651Y+1084047D01*
X-57151Y+808565D02*
X-57151Y+1020547D01*
X+6349Y+850899D02*
X+6349Y+1016001D01*
X+69849Y+893232D02*
X+69849Y+1033245D01*
X+76201Y+897467D02*
X+76201Y+1039597D01*
X-126999Y+1090395D02*
X-52605Y+1016001D01*
X+52605Y+1016001D01*
X+76201Y+1039597D01*
X+76201Y+897467D01*
X-127000Y+762000D01*
X-184151Y+762000D01*
X-184151Y+924206D01*
X-139701Y+968656D01*
X-139701Y+1063344D01*
X-168558Y+1092201D01*
X-126999Y+1092201D01*
X-126999Y+1090395D01*
D13*
X-254000Y-2286000D03*
X+0Y-2286000D03*
X+254000Y-2286000D03*
X+508000Y-2286000D03*
D14*
X-1191000Y-1651000D03*
D15*
X-841000Y-1651000D03*
D16*
X+581660Y+1924000D03*
X+581660Y+1724000D03*
X+581660Y+1524000D03*
X+581660Y+1324000D03*
D17*
X+889000Y+2284400D03*
X+889000Y+963600D03*
D18*
X-381000Y-1905000D03*
X+635000Y-1905000D03*
D19*
X+635000Y-1143000D03*
X-381000Y-1143000D03*
X+635000Y-1524000D03*
X-381000Y-1524000D03*
X+1016000Y-2159000D03*
X+1016000Y-1143000D03*
X+1397000Y-2159000D03*
X+1397000Y-1143000D03*
D18*
X-1270000Y-254000D03*
X-1270000Y-1270000D03*
X-1016000Y-127000D03*
X-1016000Y-1143000D03*
X-635000Y+0D03*
X-635000Y-1016000D03*
X+1905000Y-254000D03*
X+1905000Y+254000D03*
X-1016000Y-2286000D03*
X-508000Y-2286000D03*
D70*
X+1778000Y-1170000D03*
D71*
X+1778000Y-1370000D03*
D70*
X+789000Y-762000D03*
D71*
X+989000Y-762000D03*
D18*
X+1524000Y-508000D03*
X+1778000Y-508000D03*
D70*
X+27000Y+2032000D03*
D71*
X+227000Y+2032000D03*
D18*
X+254000Y+127000D03*
X+254000Y+381000D03*
X-1143000Y+2159000D03*
X-889000Y+2159000D03*
X-1524000Y-1905000D03*
X-1524000Y-635000D03*
X+508000Y-127000D03*
X+1524000Y-127000D03*
D70*
X-508000Y+1805000D03*
D71*
X-508000Y+2005000D03*
D19*
X+1270000Y+254000D03*
X+1270000Y-762000D03*
D18*
X+1651000Y-1778000D03*
X+889000Y-1778000D03*
X-1397000Y+1524000D03*
X-1397000Y+2286000D03*
D21*
X+0Y-635000D03*
D22*
X+0Y-889000D03*
X+0Y-1143000D03*
X+0Y-1397000D03*
X-762000Y-1397000D03*
X-762000Y-1143000D03*
X-762000Y-889000D03*
X-762000Y-635000D03*
D18*
X-508000Y-254000D03*
X-1524000Y-254000D03*
X+1016000Y+1524000D03*
X+0Y+1524000D03*
X+0Y+1143000D03*
X-1016000Y+1143000D03*
X-254000Y+2413000D03*
X-254000Y+1397000D03*
X-1397000Y+2032000D03*
X-1397000Y+1016000D03*
D21*
X+1016000Y+381000D03*
D22*
X+762000Y+381000D03*
X+762000Y-381000D03*
X+1016000Y-381000D03*
D23*
X-1651000Y+2159000D03*
X-1651000Y+2286000D03*
X-1651000Y+2413000D03*
D24*
X-508000Y+1016000D03*
X-254000Y+1016000D03*
X-1143000Y+254000D03*
X-1397000Y+254000D03*
X-254000Y+254000D03*
X-508000Y+254000D03*
D25*
X-1904000Y-2587000D02*
X+2085000Y-2587000D01*
X+2085000Y+2620000D01*
X-1904000Y+2620000D01*
X-1904000Y-2587000D01*
D26*
X+1574800Y+889000D02*
X+1727200Y+889000D01*
X+1651000Y+927100D01*
X+1727200Y+965200D01*
X+1574800Y+965200D01*
X+1676400Y+1003300D02*
X+1676400Y+1054100D01*
X+1651000Y+1066800D01*
X+1574800Y+1066800D01*
X+1574800Y+1003300D01*
X+1600200Y+990600D01*
X+1625600Y+1003300D01*
X+1625600Y+1066800D01*
X+1651000Y+1168400D02*
X+1676400Y+1155700D01*
X+1676400Y+1104900D01*
X+1651000Y+1092200D01*
X+1600200Y+1092200D01*
X+1574800Y+1104900D01*
X+1574800Y+1155700D01*
X+1600200Y+1168400D01*
X+1574800Y+1168400D02*
X+1727200Y+1168400D01*
X+1625600Y+1193800D02*
X+1625600Y+1270000D01*
X+1651000Y+1270000D01*
X+1676400Y+1257300D01*
X+1676400Y+1206500D01*
X+1651000Y+1193800D01*
X+1600200Y+1193800D01*
X+1574800Y+1206500D01*
X+1574800Y+1257300D01*
X+1727200Y+1409700D02*
X+1727200Y+1460500D01*
X+1727200Y+1435100D02*
X+1574800Y+1435100D01*
X+1574800Y+1409700D02*
X+1574800Y+1460500D01*
X+1574800Y+1498600D02*
X+1676400Y+1498600D01*
X+1651000Y+1498600D02*
X+1676400Y+1511300D01*
X+1676400Y+1562100D01*
X+1651000Y+1574800D01*
X+1574800Y+1574800D01*
X+1574800Y+1701800D02*
X+1727200Y+1701800D01*
X+1727200Y+1765300D01*
X+1701800Y+1778000D01*
X+1676400Y+1778000D01*
X+1651000Y+1765300D01*
X+1651000Y+1701800D01*
X+1651000Y+1765300D02*
X+1625600Y+1778000D01*
X+1574800Y+1778000D01*
X+1676400Y+1803400D02*
X+1600200Y+1803400D01*
X+1574800Y+1816100D01*
X+1625600Y+1841500D01*
X+1574800Y+1866900D01*
X+1600200Y+1879600D01*
X+1676400Y+1879600D01*
X+1676400Y+1917700D02*
X+1676400Y+1968500D01*
X+1651000Y+1981200D01*
X+1574800Y+1981200D01*
X+1574800Y+1917700D01*
X+1600200Y+1905000D01*
X+1625600Y+1917700D01*
X+1625600Y+1981200D01*
X+1574800Y+2006600D02*
X+1676400Y+2006600D01*
X+1651000Y+2006600D02*
X+1676400Y+2019300D01*
X+1676400Y+2070100D01*
X+1651000Y+2082800D01*
X+1574800Y+2082800D01*
X+1651000Y+2184400D02*
X+1676400Y+2171700D01*
X+1676400Y+2120900D01*
X+1651000Y+2108200D01*
X+1600200Y+2108200D01*
X+1574800Y+2120900D01*
X+1574800Y+2171700D01*
X+1600200Y+2184400D01*
X+1574800Y+2184400D02*
X+1727200Y+2184400D01*
X+1676400Y+2222500D02*
X+1676400Y+2273300D01*
X+1651000Y+2286000D01*
X+1574800Y+2286000D01*
X+1574800Y+2222500D01*
X+1600200Y+2209800D01*
X+1625600Y+2222500D01*
X+1625600Y+2286000D01*
X+1473200Y+1473200D02*
X+1473200Y+1409700D01*
X+1422400Y+1409700D01*
X+1422400Y+1460500D01*
X+1397000Y+1473200D01*
X+1346200Y+1473200D01*
X+1320800Y+1460500D01*
X+1320800Y+1422400D01*
X+1346200Y+1409700D01*
X+1473200Y+1498600D02*
X+1397000Y+1498600D01*
X+1320800Y+1536700D01*
X+1397000Y+1574800D01*
X+1473200Y+1574800D01*
X+1473200Y+1778000D02*
X+1320800Y+1701800D01*
X+1447800Y+1816100D02*
X+1473200Y+1828800D01*
X+1473200Y+1866900D01*
X+1447800Y+1879600D01*
X+1422400Y+1879600D01*
X+1397000Y+1866900D01*
X+1371600Y+1879600D01*
X+1346200Y+1879600D01*
X+1320800Y+1866900D01*
X+1320800Y+1828800D01*
X+1346200Y+1816100D01*
X+1397000Y+1841500D02*
X+1397000Y+1866900D01*
X+1320800Y+1905000D02*
X+1422400Y+1905000D01*
X+1473200Y+1930400D01*
X+1473200Y+1955800D01*
X+1422400Y+1981200D01*
X+1320800Y+1981200D01*
X+1371600Y+1905000D02*
X+1371600Y+1981200D01*
D27*
X+1218483Y+680134D02*
X+1259123Y+680134D01*
X+1274363Y+680134D02*
X+1289603Y+680134D01*
X+1203243Y+685214D02*
X+1269283Y+685214D01*
X+1274363Y+685214D02*
X+1289603Y+685214D01*
X+1325163Y+685214D02*
X+1396283Y+685214D01*
X+1487723Y+685214D02*
X+1502963Y+685214D01*
X+1594403Y+685214D02*
X+1711243Y+685214D01*
X+1736643Y+685214D02*
X+1858563Y+685214D01*
X+1934763Y+685214D02*
X+1980483Y+685214D01*
X+1198163Y+690294D02*
X+1289603Y+690294D01*
X+1320083Y+690294D02*
X+1401363Y+690294D01*
X+1482643Y+690294D02*
X+1508043Y+690294D01*
X+1589323Y+690294D02*
X+1711243Y+690294D01*
X+1736643Y+690294D02*
X+1858563Y+690294D01*
X+1919523Y+690294D02*
X+1995723Y+690294D01*
X+1193083Y+695374D02*
X+1289603Y+695374D01*
X+1320083Y+695374D02*
X+1401363Y+695374D01*
X+1482643Y+695374D02*
X+1508043Y+695374D01*
X+1589323Y+695374D02*
X+1711243Y+695374D01*
X+1736643Y+695374D02*
X+1858563Y+695374D01*
X+1914443Y+695374D02*
X+2005883Y+695374D01*
X+1188003Y+700454D02*
X+1218483Y+700454D01*
X+1259123Y+700454D02*
X+1289603Y+700454D01*
X+1325163Y+700454D02*
X+1396283Y+700454D01*
X+1477563Y+700454D02*
X+1508043Y+700454D01*
X+1594403Y+700454D02*
X+1711243Y+700454D01*
X+1736643Y+700454D02*
X+1858563Y+700454D01*
X+1914443Y+700454D02*
X+2010963Y+700454D01*
X+1188003Y+705534D02*
X+1213403Y+705534D01*
X+1264203Y+705534D02*
X+1289603Y+705534D01*
X+1350563Y+705534D02*
X+1370883Y+705534D01*
X+1477563Y+705534D02*
X+1513123Y+705534D01*
X+1594403Y+705534D02*
X+1614723Y+705534D01*
X+1665523Y+705534D02*
X+1685843Y+705534D01*
X+1736643Y+705534D02*
X+1756963Y+705534D01*
X+1823003Y+705534D02*
X+1843323Y+705534D01*
X+1914443Y+705534D02*
X+1939843Y+705534D01*
X+1980483Y+705534D02*
X+2016043Y+705534D01*
X+1182923Y+710614D02*
X+1208323Y+710614D01*
X+1269283Y+710614D02*
X+1289603Y+710614D01*
X+1350563Y+710614D02*
X+1370883Y+710614D01*
X+1477563Y+710614D02*
X+1513123Y+710614D01*
X+1594403Y+710614D02*
X+1609643Y+710614D01*
X+1665523Y+710614D02*
X+1685843Y+710614D01*
X+1736643Y+710614D02*
X+1756963Y+710614D01*
X+1823003Y+710614D02*
X+1843323Y+710614D01*
X+1919523Y+710614D02*
X+1924603Y+710614D01*
X+1990643Y+710614D02*
X+2021123Y+710614D01*
X+1182923Y+715694D02*
X+1203243Y+715694D01*
X+1274363Y+715694D02*
X+1289603Y+715694D01*
X+1350563Y+715694D02*
X+1370883Y+715694D01*
X+1477563Y+715694D02*
X+1513123Y+715694D01*
X+1589323Y+715694D02*
X+1609643Y+715694D01*
X+1665523Y+715694D02*
X+1685843Y+715694D01*
X+1736643Y+715694D02*
X+1756963Y+715694D01*
X+1823003Y+715694D02*
X+1843323Y+715694D01*
X+1995723Y+715694D02*
X+2021123Y+715694D01*
X+1182923Y+720774D02*
X+1203243Y+720774D01*
X+1274363Y+720774D02*
X+1294683Y+720774D01*
X+1350563Y+720774D02*
X+1370883Y+720774D01*
X+1472483Y+720774D02*
X+1492803Y+720774D01*
X+1497883Y+720774D02*
X+1518203Y+720774D01*
X+1589323Y+720774D02*
X+1609643Y+720774D01*
X+1665523Y+720774D02*
X+1685843Y+720774D01*
X+1736643Y+720774D02*
X+1756963Y+720774D01*
X+1823003Y+720774D02*
X+1843323Y+720774D01*
X+2000803Y+720774D02*
X+2026203Y+720774D01*
X+1182923Y+725854D02*
X+1203243Y+725854D01*
X+1274363Y+725854D02*
X+1294683Y+725854D01*
X+1350563Y+725854D02*
X+1370883Y+725854D01*
X+1472483Y+725854D02*
X+1492803Y+725854D01*
X+1497883Y+725854D02*
X+1518203Y+725854D01*
X+1589323Y+725854D02*
X+1609643Y+725854D01*
X+1665523Y+725854D02*
X+1685843Y+725854D01*
X+1736643Y+725854D02*
X+1756963Y+725854D01*
X+1823003Y+725854D02*
X+1843323Y+725854D01*
X+2005883Y+725854D02*
X+2026203Y+725854D01*
X+1182923Y+730934D02*
X+1203243Y+730934D01*
X+1274363Y+730934D02*
X+1294683Y+730934D01*
X+1350563Y+730934D02*
X+1370883Y+730934D01*
X+1472483Y+730934D02*
X+1492803Y+730934D01*
X+1497883Y+730934D02*
X+1518203Y+730934D01*
X+1589323Y+730934D02*
X+1609643Y+730934D01*
X+1665523Y+730934D02*
X+1685843Y+730934D01*
X+1736643Y+730934D02*
X+1756963Y+730934D01*
X+1823003Y+730934D02*
X+1843323Y+730934D01*
X+1889043Y+730934D02*
X+1919523Y+730934D01*
X+1929683Y+730934D02*
X+1970323Y+730934D01*
X+2005883Y+730934D02*
X+2026203Y+730934D01*
X+1182923Y+736014D02*
X+1203243Y+736014D01*
X+1279443Y+736014D02*
X+1294683Y+736014D01*
X+1350563Y+736014D02*
X+1370883Y+736014D01*
X+1467403Y+736014D02*
X+1487723Y+736014D01*
X+1497883Y+736014D02*
X+1518203Y+736014D01*
X+1589323Y+736014D02*
X+1609643Y+736014D01*
X+1665523Y+736014D02*
X+1685843Y+736014D01*
X+1823003Y+736014D02*
X+1843323Y+736014D01*
X+1883963Y+736014D02*
X+1975403Y+736014D01*
X+2005883Y+736014D02*
X+2031283Y+736014D01*
X+1182923Y+741094D02*
X+1208323Y+741094D01*
X+1350563Y+741094D02*
X+1370883Y+741094D01*
X+1467403Y+741094D02*
X+1487723Y+741094D01*
X+1502963Y+741094D02*
X+1523283Y+741094D01*
X+1589323Y+741094D02*
X+1609643Y+741094D01*
X+1665523Y+741094D02*
X+1685843Y+741094D01*
X+1772203Y+741094D02*
X+1787443Y+741094D01*
X+1823003Y+741094D02*
X+1843323Y+741094D01*
X+1883963Y+741094D02*
X+1980483Y+741094D01*
X+2010963Y+741094D02*
X+2031283Y+741094D01*
X+1188003Y+746174D02*
X+1213403Y+746174D01*
X+1350563Y+746174D02*
X+1370883Y+746174D01*
X+1467403Y+746174D02*
X+1487723Y+746174D01*
X+1502963Y+746174D02*
X+1523283Y+746174D01*
X+1589323Y+746174D02*
X+1609643Y+746174D01*
X+1665523Y+746174D02*
X+1685843Y+746174D01*
X+1772203Y+746174D02*
X+1787443Y+746174D01*
X+1823003Y+746174D02*
X+1843323Y+746174D01*
X+1889043Y+746174D02*
X+1985563Y+746174D01*
X+2010963Y+746174D02*
X+2031283Y+746174D01*
X+1188003Y+751254D02*
X+1228643Y+751254D01*
X+1350563Y+751254D02*
X+1370883Y+751254D01*
X+1467403Y+751254D02*
X+1487723Y+751254D01*
X+1502963Y+751254D02*
X+1523283Y+751254D01*
X+1589323Y+751254D02*
X+1609643Y+751254D01*
X+1665523Y+751254D02*
X+1685843Y+751254D01*
X+1772203Y+751254D02*
X+1787443Y+751254D01*
X+1823003Y+751254D02*
X+1843323Y+751254D01*
X+1899203Y+751254D02*
X+1939843Y+751254D01*
X+1960163Y+751254D02*
X+1985563Y+751254D01*
X+2010963Y+751254D02*
X+2031283Y+751254D01*
X+1193083Y+756334D02*
X+1248963Y+756334D01*
X+1350563Y+756334D02*
X+1370883Y+756334D01*
X+1462323Y+756334D02*
X+1482643Y+756334D01*
X+1502963Y+756334D02*
X+1528363Y+756334D01*
X+1665523Y+756334D02*
X+1685843Y+756334D01*
X+1772203Y+756334D02*
X+1787443Y+756334D01*
X+1823003Y+756334D02*
X+1843323Y+756334D01*
X+1899203Y+756334D02*
X+1929683Y+756334D01*
X+1965243Y+756334D02*
X+1985563Y+756334D01*
X+2010963Y+756334D02*
X+2031283Y+756334D01*
X+1198163Y+761414D02*
X+1264203Y+761414D01*
X+1350563Y+761414D02*
X+1370883Y+761414D01*
X+1462323Y+761414D02*
X+1482643Y+761414D01*
X+1508043Y+761414D02*
X+1528363Y+761414D01*
X+1665523Y+761414D02*
X+1685843Y+761414D01*
X+1772203Y+761414D02*
X+1843323Y+761414D01*
X+1899203Y+761414D02*
X+1924603Y+761414D01*
X+1965243Y+761414D02*
X+1985563Y+761414D01*
X+2010963Y+761414D02*
X+2031283Y+761414D01*
X+1208323Y+766494D02*
X+1274363Y+766494D01*
X+1350563Y+766494D02*
X+1370883Y+766494D01*
X+1462323Y+766494D02*
X+1482643Y+766494D01*
X+1508043Y+766494D02*
X+1528363Y+766494D01*
X+1665523Y+766494D02*
X+1685843Y+766494D01*
X+1772203Y+766494D02*
X+1843323Y+766494D01*
X+1899203Y+766494D02*
X+1924603Y+766494D01*
X+1965243Y+766494D02*
X+1985563Y+766494D01*
X+2010963Y+766494D02*
X+2031283Y+766494D01*
X+1223563Y+771574D02*
X+1279443Y+771574D01*
X+1350563Y+771574D02*
X+1370883Y+771574D01*
X+1457243Y+771574D02*
X+1477563Y+771574D01*
X+1508043Y+771574D02*
X+1528363Y+771574D01*
X+1665523Y+771574D02*
X+1685843Y+771574D01*
X+1772203Y+771574D02*
X+1843323Y+771574D01*
X+1899203Y+771574D02*
X+1919523Y+771574D01*
X+1960163Y+771574D02*
X+1985563Y+771574D01*
X+2010963Y+771574D02*
X+2031283Y+771574D01*
X+1243883Y+776654D02*
X+1284523Y+776654D01*
X+1350563Y+776654D02*
X+1370883Y+776654D01*
X+1457243Y+776654D02*
X+1477563Y+776654D01*
X+1508043Y+776654D02*
X+1533443Y+776654D01*
X+1665523Y+776654D02*
X+1685843Y+776654D01*
X+1772203Y+776654D02*
X+1843323Y+776654D01*
X+1899203Y+776654D02*
X+1919523Y+776654D01*
X+1955083Y+776654D02*
X+1980483Y+776654D01*
X+2010963Y+776654D02*
X+2031283Y+776654D01*
X+1259123Y+781734D02*
X+1284523Y+781734D01*
X+1350563Y+781734D02*
X+1370883Y+781734D01*
X+1457243Y+781734D02*
X+1477563Y+781734D01*
X+1513123Y+781734D02*
X+1533443Y+781734D01*
X+1665523Y+781734D02*
X+1685843Y+781734D01*
X+1772203Y+781734D02*
X+1787443Y+781734D01*
X+1823003Y+781734D02*
X+1843323Y+781734D01*
X+1899203Y+781734D02*
X+1919523Y+781734D01*
X+1944923Y+781734D02*
X+1975403Y+781734D01*
X+2010963Y+781734D02*
X+2031283Y+781734D01*
X+1264203Y+786814D02*
X+1289603Y+786814D01*
X+1350563Y+786814D02*
X+1370883Y+786814D01*
X+1457243Y+786814D02*
X+1477563Y+786814D01*
X+1513123Y+786814D02*
X+1533443Y+786814D01*
X+1665523Y+786814D02*
X+1685843Y+786814D01*
X+1772203Y+786814D02*
X+1787443Y+786814D01*
X+1823003Y+786814D02*
X+1843323Y+786814D01*
X+1899203Y+786814D02*
X+1970323Y+786814D01*
X+2010963Y+786814D02*
X+2031283Y+786814D01*
X+1182923Y+791894D02*
X+1203243Y+791894D01*
X+1269283Y+791894D02*
X+1289603Y+791894D01*
X+1350563Y+791894D02*
X+1370883Y+791894D01*
X+1452163Y+791894D02*
X+1472483Y+791894D01*
X+1513123Y+791894D02*
X+1538523Y+791894D01*
X+1665523Y+791894D02*
X+1685843Y+791894D01*
X+1772203Y+791894D02*
X+1787443Y+791894D01*
X+1823003Y+791894D02*
X+1843323Y+791894D01*
X+1899203Y+791894D02*
X+1965243Y+791894D01*
X+2005883Y+791894D02*
X+2031283Y+791894D01*
X+1182923Y+796974D02*
X+1203243Y+796974D01*
X+1269283Y+796974D02*
X+1289603Y+796974D01*
X+1350563Y+796974D02*
X+1370883Y+796974D01*
X+1452163Y+796974D02*
X+1472483Y+796974D01*
X+1518203Y+796974D02*
X+1538523Y+796974D01*
X+1665523Y+796974D02*
X+1685843Y+796974D01*
X+1741723Y+796974D02*
X+1762043Y+796974D01*
X+1772203Y+796974D02*
X+1787443Y+796974D01*
X+1823003Y+796974D02*
X+1843323Y+796974D01*
X+1899203Y+796974D02*
X+1950003Y+796974D01*
X+2005883Y+796974D02*
X+2026203Y+796974D01*
X+1182923Y+802054D02*
X+1203243Y+802054D01*
X+1269283Y+802054D02*
X+1289603Y+802054D01*
X+1350563Y+802054D02*
X+1370883Y+802054D01*
X+1452163Y+802054D02*
X+1472483Y+802054D01*
X+1518203Y+802054D02*
X+1538523Y+802054D01*
X+1665523Y+802054D02*
X+1685843Y+802054D01*
X+1741723Y+802054D02*
X+1762043Y+802054D01*
X+1823003Y+802054D02*
X+1843323Y+802054D01*
X+1899203Y+802054D02*
X+1924603Y+802054D01*
X+2005883Y+802054D02*
X+2026203Y+802054D01*
X+1182923Y+807134D02*
X+1203243Y+807134D01*
X+1269283Y+807134D02*
X+1289603Y+807134D01*
X+1350563Y+807134D02*
X+1370883Y+807134D01*
X+1447083Y+807134D02*
X+1472483Y+807134D01*
X+1518203Y+807134D02*
X+1538523Y+807134D01*
X+1665523Y+807134D02*
X+1685843Y+807134D01*
X+1741723Y+807134D02*
X+1762043Y+807134D01*
X+1823003Y+807134D02*
X+1843323Y+807134D01*
X+1899203Y+807134D02*
X+1919523Y+807134D01*
X+2000803Y+807134D02*
X+2026203Y+807134D01*
X+1182923Y+812214D02*
X+1203243Y+812214D01*
X+1269283Y+812214D02*
X+1289603Y+812214D01*
X+1350563Y+812214D02*
X+1370883Y+812214D01*
X+1447083Y+812214D02*
X+1467403Y+812214D01*
X+1518203Y+812214D02*
X+1543603Y+812214D01*
X+1665523Y+812214D02*
X+1685843Y+812214D01*
X+1741723Y+812214D02*
X+1762043Y+812214D01*
X+1823003Y+812214D02*
X+1843323Y+812214D01*
X+1899203Y+812214D02*
X+1919523Y+812214D01*
X+1995723Y+812214D02*
X+2021123Y+812214D01*
X+1182923Y+817294D02*
X+1208323Y+817294D01*
X+1264203Y+817294D02*
X+1289603Y+817294D01*
X+1350563Y+817294D02*
X+1370883Y+817294D01*
X+1447083Y+817294D02*
X+1467403Y+817294D01*
X+1523283Y+817294D02*
X+1543603Y+817294D01*
X+1665523Y+817294D02*
X+1685843Y+817294D01*
X+1741723Y+817294D02*
X+1762043Y+817294D01*
X+1823003Y+817294D02*
X+1843323Y+817294D01*
X+1899203Y+817294D02*
X+1919523Y+817294D01*
X+1990643Y+817294D02*
X+2021123Y+817294D01*
X+1182923Y+822374D02*
X+1213403Y+822374D01*
X+1259123Y+822374D02*
X+1284523Y+822374D01*
X+1350563Y+822374D02*
X+1370883Y+822374D01*
X+1447083Y+822374D02*
X+1467403Y+822374D01*
X+1523283Y+822374D02*
X+1543603Y+822374D01*
X+1665523Y+822374D02*
X+1685843Y+822374D01*
X+1741723Y+822374D02*
X+1762043Y+822374D01*
X+1823003Y+822374D02*
X+1843323Y+822374D01*
X+1899203Y+822374D02*
X+1924603Y+822374D01*
X+1985563Y+822374D02*
X+2016043Y+822374D01*
X+1182923Y+827454D02*
X+1218483Y+827454D01*
X+1254043Y+827454D02*
X+1284523Y+827454D01*
X+1350563Y+827454D02*
X+1370883Y+827454D01*
X+1442003Y+827454D02*
X+1467403Y+827454D01*
X+1523283Y+827454D02*
X+1548683Y+827454D01*
X+1665523Y+827454D02*
X+1685843Y+827454D01*
X+1741723Y+827454D02*
X+1762043Y+827454D01*
X+1823003Y+827454D02*
X+1843323Y+827454D01*
X+1904283Y+827454D02*
X+1934763Y+827454D01*
X+1975403Y+827454D02*
X+2016043Y+827454D01*
X+1182923Y+832534D02*
X+1279443Y+832534D01*
X+1325163Y+832534D02*
X+1396283Y+832534D01*
X+1426763Y+832534D02*
X+1482643Y+832534D01*
X+1508043Y+832534D02*
X+1563923Y+832534D01*
X+1660443Y+832534D02*
X+1690923Y+832534D01*
X+1741723Y+832534D02*
X+1858563Y+832534D01*
X+1904283Y+832534D02*
X+2010963Y+832534D01*
X+1177843Y+837614D02*
X+1274363Y+837614D01*
X+1320083Y+837614D02*
X+1401363Y+837614D01*
X+1426763Y+837614D02*
X+1482643Y+837614D01*
X+1508043Y+837614D02*
X+1563923Y+837614D01*
X+1640123Y+837614D02*
X+1711243Y+837614D01*
X+1736643Y+837614D02*
X+1858563Y+837614D01*
X+1909363Y+837614D02*
X+2005883Y+837614D01*
X+1177843Y+842694D02*
X+1269283Y+842694D01*
X+1320083Y+842694D02*
X+1401363Y+842694D01*
X+1426763Y+842694D02*
X+1482643Y+842694D01*
X+1508043Y+842694D02*
X+1563923Y+842694D01*
X+1640123Y+842694D02*
X+1711243Y+842694D01*
X+1736643Y+842694D02*
X+1858563Y+842694D01*
X+1919523Y+842694D02*
X+1995723Y+842694D01*
X+1177843Y+847774D02*
X+1198163Y+847774D01*
X+1203243Y+847774D02*
X+1254043Y+847774D01*
X+1325163Y+847774D02*
X+1396283Y+847774D01*
X+1426763Y+847774D02*
X+1482643Y+847774D01*
X+1508043Y+847774D02*
X+1563923Y+847774D01*
X+1640123Y+847774D02*
X+1711243Y+847774D01*
X+1736643Y+847774D02*
X+1858563Y+847774D01*
X+1929683Y+847774D02*
X+1980483Y+847774D01*
X+1182923Y+852854D02*
X+1198163Y+852854D01*
X+1213403Y+852854D02*
X+1223563Y+852854D01*
M02*
